<svg width="12" height="11" viewBox="0 0 12 11" fill="none" xmlns="http://www.w3.org/2000/svg">
<path d="M10.9106 3.45179L7.96482 3.02291L6.64839 0.358442C6.53005 0.120353 6.2992 0 6.06836 0C5.83892 0 5.60969 0.118743 5.49095 0.358442L4.17411 3.02271L1.22808 3.45119C0.699778 3.52766 0.488053 4.17753 0.871049 4.54986L3.00218 6.62283L2.49782 9.55074C2.42618 9.96895 2.76006 10.3045 3.134 10.3045C3.23322 10.3045 3.33526 10.2809 3.43328 10.229L6.06876 8.84674L8.70404 10.2294C8.80186 10.2807 8.90369 10.3041 9.00251 10.3041C9.37685 10.3041 9.71134 9.96976 9.6397 9.55134L9.13594 6.62323L11.2675 4.55066C11.6507 4.17833 11.4389 3.52827 10.9106 3.45179ZM8.46052 5.9313L8.09584 6.28592L8.18198 6.78665L8.57483 9.06993L6.51938 7.99138L6.06896 7.75511L6.06957 1.37138L7.09659 3.45018L7.3216 3.90563L7.82494 3.97889L10.1239 4.31358L8.46052 5.9313Z" fill="#FF5819"/>
</svg>
