<svg width="11" height="11" viewBox="0 0 11 11" fill="none" xmlns="http://www.w3.org/2000/svg">
<path d="M10.4485 3.45142L7.50851 3.02279L6.19445 0.358452C5.959 -0.116461 5.27682 -0.122498 5.03936 0.358452L3.72531 3.02279L0.785277 3.45142C0.258044 3.52789 0.0467487 4.17787 0.429093 4.55016L2.55614 6.62286L2.05305 9.55082C1.9625 10.0801 2.51991 10.4765 2.98678 10.229L5.61691 8.8465L8.24704 10.229C8.7139 10.4745 9.27132 10.0801 9.18076 9.55082L8.67768 6.62286L10.8047 4.55016C11.1871 4.17787 10.9758 3.52789 10.4485 3.45142ZM7.64132 6.28479L8.11824 9.06987L5.61691 7.75581L3.11557 9.06987L3.59249 6.28479L1.56808 4.3127L4.36523 3.90621L5.61691 1.37066L6.86858 3.90621L9.66573 4.3127L7.64132 6.28479Z" fill="#FF5819"/>
</svg>
