<svg width="1600" height="195" viewBox="0 0 1600 195" fill="none" xmlns="http://www.w3.org/2000/svg">
<path fill-rule="evenodd" clip-rule="evenodd" d="M0 121.353L66.6667 101.127C133.333 80.902 266.667 40.4513 400 24.271C533.333 8.09068 666.667 16.1808 800 36.4062C933.333 56.6316 1066.67 88.9922 1200 117.308C1333.33 145.623 1466.67 169.894 1533.33 182.029L1600 194.164V0.000534058H1533.33C1466.67 0.000534058 1333.33 0.000534058 1200 0.000534058C1066.67 0.000534058 933.333 0.000534058 800 0.000534058C666.667 0.000534058 533.333 0.000534058 400 0.000534058C266.667 0.000534058 133.333 0.000534058 66.6667 0.000534058H0V121.353Z" fill="#FFF7E1"/>
</svg>
