<svg width="22" height="22" viewBox="0 0 22 22" fill="none" xmlns="http://www.w3.org/2000/svg">
<circle cx="11" cy="11" r="11" fill="#FF5819"/>
<path d="M16.7194 15.5675V13.8453C16.7264 13.5638 16.6295 13.2895 16.4471 13.0746C16.2647 12.8598 16.0095 12.7193 15.7301 12.68C15.1779 12.6073 14.6356 12.4725 14.1138 12.2781C13.9079 12.2009 13.6841 12.1842 13.469 12.23C13.2539 12.2757 13.0565 12.3821 12.9001 12.5365L12.1696 13.2655C10.7296 12.4483 9.53723 11.2583 8.7184 9.82115L9.4489 9.09209C9.60355 8.93601 9.71013 8.73895 9.75601 8.52428C9.80188 8.3096 9.78513 8.08629 9.70774 7.88082C9.51301 7.35999 9.37794 6.81885 9.3051 6.26771C9.26603 5.99185 9.12779 5.73957 8.91613 5.55791C8.70447 5.37624 8.43385 5.27759 8.1547 5.28033H6.4291C6.26939 5.28048 6.11146 5.31382 5.96537 5.37822C5.81928 5.44262 5.68822 5.53668 5.58055 5.6544C5.47287 5.77212 5.39094 5.91093 5.33996 6.06198C5.28898 6.21304 5.27008 6.37303 5.28445 6.53178C5.47326 8.3062 6.07822 10.0113 7.05032 11.5089C7.93344 12.8959 9.11174 14.0719 10.5015 14.9532C11.9953 15.92 13.6955 16.5237 15.4655 16.7156C15.625 16.73 15.7858 16.711 15.9376 16.6598C16.0893 16.6085 16.2287 16.5263 16.3467 16.4182C16.4648 16.3101 16.5589 16.1786 16.6231 16.0321C16.6873 15.8856 16.7201 15.7274 16.7194 15.5675Z" fill="#FF5819" stroke="white" stroke-linecap="round" stroke-linejoin="round"/>
</svg>
