<svg width="290" height="42" viewBox="0 0 290 42" fill="none" xmlns="http://www.w3.org/2000/svg">
<path d="M289.091 31.788C289.413 32.4329 289.575 33.1746 289.575 34.013C289.575 35.1093 289.413 36.0122 289.026 36.7862C288.639 37.5601 288.123 38.205 287.511 38.7532C286.866 39.2691 286.124 39.6883 285.286 40.0108C284.447 40.3333 283.577 40.5912 282.674 40.7525C281.739 40.9137 280.804 41.0427 279.868 41.1072C278.933 41.1394 278.063 41.1717 277.192 41.1717C274.999 41.1717 272.935 41.0104 271.065 40.6235C269.163 40.2688 267.518 39.8173 266.067 39.2691V33.9485C267.55 34.7546 269.259 35.3996 271.162 35.8833C273.064 36.3347 275.096 36.5604 277.256 36.5604C278.546 36.5604 279.578 36.4959 280.384 36.367C281.191 36.238 281.835 36.0445 282.287 35.851C282.738 35.6253 283.061 35.3996 283.222 35.1416C283.383 34.9159 283.48 34.6579 283.48 34.4322C283.48 34.0775 283.319 33.755 282.964 33.497C282.642 33.2391 282.222 33.0133 281.642 32.7876C281.094 32.5941 280.417 32.4329 279.675 32.2394C278.933 32.0782 278.127 31.917 277.289 31.7557C276.45 31.5945 275.58 31.401 274.709 31.2075C273.806 31.0141 272.935 30.7883 272.097 30.4981C271.259 30.2401 270.452 29.9499 269.711 29.5952C268.969 29.2405 268.324 28.8213 267.744 28.3376C267.196 27.8539 266.744 27.2735 266.422 26.6608C266.099 26.0159 265.938 25.2742 265.938 24.4358C265.938 23.4684 266.099 22.5978 266.454 21.8884C266.776 21.1789 267.26 20.5663 267.841 20.0503C268.453 19.5666 269.13 19.1474 269.904 18.8249C270.678 18.5025 271.484 18.2768 272.355 18.0833C273.226 17.9221 274.096 17.7931 274.967 17.7286C275.838 17.6641 276.676 17.6318 277.45 17.6318C278.321 17.6318 279.223 17.6963 280.126 17.7608C281.062 17.8576 281.964 17.9865 282.867 18.1478C283.738 18.309 284.609 18.4702 285.447 18.696C286.253 18.8894 287.027 19.1152 287.737 19.3409V24.5003C287.317 24.3068 286.769 24.0811 286.06 23.8231C285.35 23.5652 284.576 23.3072 283.706 23.0815C282.835 22.8235 281.868 22.63 280.836 22.501C279.804 22.3398 278.74 22.2431 277.643 22.2431C276.805 22.2431 276.063 22.2753 275.451 22.3398C274.838 22.372 274.29 22.4688 273.903 22.5333C273.484 22.63 273.129 22.7268 272.903 22.8557C272.645 22.9525 272.452 23.0815 272.323 23.1782C272.194 23.3072 272.129 23.4362 272.097 23.5652C272.033 23.6619 272.033 23.7909 272.033 23.8876C272.033 24.2101 272.194 24.5003 272.516 24.726C272.839 24.984 273.29 25.1775 273.838 25.371C274.419 25.5644 275.064 25.7579 275.805 25.9191C276.579 26.0804 277.353 26.2739 278.192 26.4351C279.03 26.6286 279.901 26.822 280.804 27.0155C281.706 27.2412 282.577 27.4992 283.416 27.7572C284.254 28.0474 285.06 28.3699 285.802 28.7568C286.543 29.1115 287.188 29.563 287.769 30.0467C288.317 30.5626 288.768 31.143 289.091 31.788Z" fill="#402913"/>
<path d="M262.223 25.695C262.545 26.7913 262.706 28.0489 262.706 29.4678C262.706 30.9189 262.545 32.1765 262.223 33.3051C261.932 34.4015 261.481 35.3689 260.9 36.2073C260.352 37.0134 259.643 37.7228 258.869 38.3033C258.063 38.8837 257.16 39.3352 256.192 39.6899C255.225 40.0446 254.161 40.2703 253.032 40.4315C251.904 40.5928 250.743 40.6895 249.517 40.6895H235.329V18.3105H249.485C250.711 18.3105 251.871 18.4073 253 18.5363C254.129 18.6975 255.193 18.9555 256.16 19.3102C257.16 19.6649 258.063 20.1163 258.837 20.6968C259.643 21.245 260.352 21.9544 260.9 22.7928C261.481 23.5989 261.932 24.5663 262.223 25.695ZM256.192 32.2732C256.483 31.4993 256.612 30.5642 256.612 29.4678C256.612 28.4036 256.483 27.4685 256.192 26.6946C255.935 25.8884 255.483 25.2435 254.87 24.7276C254.258 24.2116 253.452 23.8247 252.484 23.5667C251.485 23.3087 250.291 23.1797 248.873 23.1797H241.359V35.8203H248.873C250.291 35.8203 251.485 35.6913 252.484 35.4333C253.452 35.1754 254.258 34.7884 254.87 34.2725C255.483 33.7243 255.935 33.0794 256.192 32.2732Z" fill="#402913"/>
<path d="M231.419 22.243C231.838 23.2104 232.064 24.2745 232.064 25.4354V40.6879H226.034V28.1441C226.034 27.3057 225.97 26.564 225.841 25.8868C225.679 25.2097 225.421 24.6292 225.034 24.1455C224.647 23.6618 224.132 23.2749 223.422 23.0169C222.745 22.7589 221.842 22.5977 220.778 22.5977C219.939 22.5977 219.069 22.7267 218.166 22.9524C217.263 23.1781 216.36 23.4684 215.489 23.8231C214.587 24.21 213.748 24.6292 212.942 25.1129C212.136 25.5966 211.394 26.1126 210.782 26.6607V40.6879H204.751V18.3089H210.782V21.3723C211.523 20.9531 212.329 20.5017 213.2 20.0825C214.071 19.6633 214.974 19.2763 215.941 18.9216C216.908 18.5669 217.94 18.2767 219.004 18.051C220.101 17.8575 221.229 17.7285 222.455 17.7285C223.938 17.7285 225.292 17.922 226.485 18.2767C227.679 18.6637 228.678 19.1796 229.517 19.8245C230.323 20.5017 230.968 21.3079 231.419 22.243Z" fill="#402913"/>
<path d="M201.524 40.6895H195.494V18.3105H201.524V40.6895Z" fill="#402913"/>
<path d="M191.653 22.2108C192.04 23.1137 192.234 24.0488 192.266 25.0807V40.6879H186.236V25.9513C186.236 25.3386 186.139 24.8227 185.946 24.4035C185.752 23.9521 185.527 23.6296 185.204 23.3394C184.882 23.0814 184.527 22.8557 184.108 22.7267C183.688 22.5977 183.237 22.5332 182.786 22.5332C180.625 22.5332 178.142 23.5329 175.369 25.4676C175.401 25.6611 175.433 25.8868 175.433 26.1126C175.466 26.3705 175.466 26.6285 175.466 26.8865V40.6879H169.436V25.8223C169.436 25.2097 169.339 24.726 169.145 24.3068C168.952 23.8876 168.694 23.5329 168.371 23.2749C168.081 23.0169 167.694 22.8234 167.275 22.7267C166.856 22.5977 166.404 22.5332 165.953 22.5332C165.373 22.5332 164.792 22.63 164.179 22.7912C163.535 22.9524 162.922 23.1781 162.277 23.4684C161.632 23.7586 161.019 24.1133 160.407 24.5002C159.794 24.9194 159.214 25.3386 158.665 25.8223V40.6879H152.635V18.3089H158.665V20.7597C159.181 20.4372 159.762 20.0825 160.407 19.7278C161.019 19.3731 161.696 19.0506 162.438 18.7604C163.148 18.4702 163.954 18.2122 164.792 18.0187C165.631 17.8253 166.533 17.7285 167.501 17.7285C168.468 17.7285 169.307 17.8575 170.016 18.051C170.725 18.2445 171.37 18.5024 171.886 18.8249C172.402 19.1474 172.854 19.5021 173.208 19.889C173.595 20.3082 173.918 20.6952 174.176 21.0821C174.95 20.5662 175.724 20.1147 176.465 19.6955C177.207 19.3086 177.949 18.9539 178.723 18.6637C179.496 18.3734 180.27 18.1477 181.044 17.9865C181.85 17.8253 182.657 17.7285 183.527 17.7285C184.882 17.7285 186.107 17.922 187.203 18.3089C188.267 18.6959 189.203 19.2118 189.944 19.889C190.686 20.5339 191.266 21.3079 191.653 22.2108Z" fill="#402913"/>
<path d="M83.7646 18.3105H108.788V23.1797H99.2751V40.6573H93.2451V23.1797H83.7646V18.3105Z" fill="#402913"/>
<path d="M55.5186 18.3105H80.5417V23.1797H71.029V40.6573H64.999V23.1797H55.5186V18.3105Z" fill="#402913"/>
<path d="M51.3014 22.3396C51.9463 23.3392 52.2688 24.5324 52.2688 25.9189V40.72H46.2387V38.5273C45.4648 38.9465 44.6264 39.3334 43.7557 39.6559C42.8851 39.9783 41.9499 40.2686 40.9826 40.4943C40.0474 40.72 39.0478 40.8812 38.0481 41.0102C37.0163 41.107 36.0166 41.1715 34.9847 41.1715C33.7594 41.1715 32.5985 41.0747 31.4699 40.8167C30.3735 40.591 29.3739 40.2363 28.5032 39.7204C27.6326 39.2044 26.9232 38.5595 26.4072 37.7211C25.8913 36.8827 25.6333 35.8831 25.6333 34.6899C25.6333 33.1744 26.0203 31.949 26.8587 30.9171C27.6648 29.9175 28.9547 29.1113 30.6315 28.4664C32.3083 27.8215 34.4688 27.3378 37.0485 26.9831C39.6282 26.6284 42.6916 26.3704 46.2387 26.1769V25.6932C46.2387 25.3385 46.142 24.9516 45.9485 24.5968C45.755 24.2421 45.4003 23.9197 44.8844 23.6295C44.3684 23.3715 43.659 23.1458 42.7561 22.9523C41.8532 22.7911 40.7246 22.6943 39.338 22.6943C38.2416 22.6943 37.1452 22.7588 36.0811 22.8555C35.017 22.9845 33.9851 23.1458 32.9855 23.3392C32.0181 23.5327 31.0829 23.7584 30.18 24.0164C29.2771 24.2744 28.471 24.5646 27.7616 24.8226V19.4697C28.5032 19.2762 29.3739 19.0827 30.309 18.8892C31.2442 18.6958 32.2438 18.5345 33.2434 18.4056C34.2753 18.2766 35.3072 18.1798 36.3391 18.0831C37.371 18.0186 38.3706 17.9541 39.338 17.9541C41.2083 17.9541 42.9496 18.1153 44.5296 18.4378C46.1097 18.728 47.4641 19.2117 48.6249 19.8566C49.7536 20.5338 50.6565 21.34 51.3014 22.3396ZM46.2387 33.4646V30.5302C43.917 30.6269 41.9499 30.7559 40.3376 30.9171C38.6931 31.0784 37.3387 31.2718 36.2746 31.4653C35.2105 31.691 34.3721 31.9168 33.7594 32.1747C33.1467 32.4327 32.663 32.6907 32.3728 32.9486C32.0826 33.2066 31.8891 33.4646 31.8246 33.7226C31.7279 33.9805 31.6956 34.2063 31.6956 34.432C31.6956 34.6899 31.7923 34.9479 31.9213 35.2059C32.0503 35.4316 32.3083 35.6573 32.663 35.8186C33.0177 36.012 33.4692 36.1733 34.0496 36.27C34.6623 36.3668 35.4039 36.4312 36.2746 36.4312C37.2742 36.4312 38.2416 36.3668 39.1768 36.2055C40.1119 36.0443 41.0148 35.8508 41.8532 35.5928C42.6916 35.3026 43.4978 35.0124 44.2394 34.6255C44.9811 34.2707 45.6583 33.8838 46.2387 33.4646Z" fill="#402913"/>
<path d="M10.9638 35.5927H22.4112V40.5586H9.70614C7.96484 40.5586 6.44927 40.3974 5.22391 40.1072C3.99854 39.8492 2.99891 39.3978 2.225 38.7851C1.41884 38.1724 0.870651 37.4307 0.515941 36.4956C0.161232 35.5927 0 34.4641 0 33.2065V18.1797H6.03006V30.9815C6.03006 31.9166 6.09456 32.6905 6.28803 33.271C6.44927 33.8514 6.73948 34.3351 7.12644 34.6898C7.51339 35.0123 8.02934 35.2702 8.64202 35.3992C9.28694 35.5282 10.0609 35.5927 10.9638 35.5927Z" fill="#402913"/>
<path fill-rule="evenodd" clip-rule="evenodd" d="M116.878 28.5709C116.916 28.5638 116.954 28.5569 116.992 28.5501C117.668 28.4289 118.386 28.3344 119.06 28.2933C119.689 28.2548 120.452 28.2507 121.136 28.3985C122.497 28.6926 124.411 28.2471 125.898 26.4406C127.226 24.828 128.857 24.3257 130.29 24.2445C130.272 24.2093 130.254 24.1742 130.235 24.1392C129.91 23.5397 129.404 22.9369 128.562 22.4666C127.708 21.9896 126.38 21.5772 124.313 21.5772C122.284 21.5772 120.886 22.02 119.913 22.6077C118.942 23.1936 118.255 24.0066 117.773 24.9689C117.219 26.0736 116.952 27.35 116.878 28.5709ZM133.239 26.8172C135.65 27.017 135.65 27.0155 135.65 27.014L135.65 27.0108L135.651 27.0039L135.652 26.9877C135.653 26.976 135.654 26.9623 135.655 26.9468C135.657 26.9156 135.659 26.8769 135.661 26.831C135.664 26.7393 135.667 26.6186 135.666 26.473C135.665 26.1827 135.647 25.7872 135.589 25.3202C135.473 24.3968 135.188 23.1295 134.489 21.8367C133.777 20.5216 132.65 19.2098 130.921 18.2441C129.205 17.2851 127.027 16.7402 124.313 16.7402C121.562 16.7402 119.267 17.3478 117.413 18.4669C115.556 19.5879 114.282 21.1382 113.449 22.8019C111.838 26.016 111.831 29.7045 112.26 32.1293C112.483 33.7971 113.565 36.168 115.403 38.1291C117.352 40.2087 120.312 41.9999 124.313 41.9999C128.106 41.9999 130.76 40.7481 132.548 39.2698C133.423 38.5471 134.055 37.8001 134.501 37.1883C134.724 36.8826 134.9 36.6116 135.031 36.4022C135.079 36.3263 135.125 36.2522 135.16 36.1957C135.17 36.1781 135.18 36.1623 135.189 36.1486C135.226 36.0888 135.238 36.07 135.238 36.07L136.601 34.0762L132.608 31.3464L131.243 33.3428C131.163 33.4599 131.084 33.5858 131 33.7194C130.677 34.2362 130.282 34.8674 129.467 35.5416C128.518 36.326 126.946 37.1629 124.313 37.1629C121.889 37.1629 120.145 36.1159 118.933 34.8218C118.46 34.3172 118.089 33.7976 117.806 33.3183C117.819 33.3159 117.833 33.3135 117.846 33.3111C118.379 33.2155 118.906 33.1486 119.355 33.1213C119.578 33.1076 119.763 33.1049 119.908 33.11C120.041 33.1147 120.105 33.1249 120.114 33.1264C120.116 33.1266 120.116 33.1267 120.115 33.1265C123.331 33.821 127.051 32.651 129.633 29.5145C129.905 29.1837 130.137 29.0926 130.596 29.072C130.886 29.059 131.214 29.0821 131.673 29.1273C131.723 29.1322 131.776 29.1376 131.832 29.1432C132.22 29.1826 132.743 29.2357 133.239 29.2357H135.466L135.65 27.017L133.239 26.8172Z" fill="#FF5819"/>
<path fill-rule="evenodd" clip-rule="evenodd" d="M201.706 3.1958L200.108 4.63391C200.001 4.73016 199.851 4.89019 199.708 5.09126C199.565 5.29297 199.462 5.49102 199.404 5.66229C199.348 5.83015 199.35 5.92656 199.356 5.96846L199.356 5.96897C199.36 5.99142 199.37 6.06063 199.482 6.18862C202.024 9.09437 201.762 12.2721 200.513 14.3534L199.407 16.1968L195.721 13.9847L196.827 12.1413C197.029 11.8041 197.164 11.3639 197.13 10.876C197.098 10.4119 196.905 9.77349 196.246 9.01986C194.881 7.45933 194.866 5.67139 195.329 4.29273C195.756 3.02236 196.592 2.01359 197.232 1.43811L198.83 0L201.706 3.1958Z" fill="#FF5819"/>
</svg>
