<svg width="118" height="17" viewBox="0 0 118 17" fill="none" xmlns="http://www.w3.org/2000/svg">
<path d="M117.013 12.8676C117.144 13.1286 117.209 13.4288 117.209 13.7682C117.209 14.2119 117.144 14.5774 116.987 14.8906C116.83 15.2039 116.621 15.4649 116.373 15.6868C116.112 15.8956 115.812 16.0653 115.473 16.1958C115.133 16.3264 114.781 16.4308 114.416 16.496C114.037 16.5613 113.659 16.6135 113.28 16.6396C112.902 16.6527 112.549 16.6657 112.197 16.6657C111.309 16.6657 110.474 16.6005 109.717 16.4438C108.947 16.3003 108.281 16.1175 107.694 15.8956V13.7421C108.294 14.0684 108.986 14.3294 109.756 14.5252C110.526 14.7079 111.348 14.7993 112.223 14.7993C112.745 14.7993 113.163 14.7732 113.489 14.721C113.815 14.6687 114.076 14.5904 114.259 14.5121C114.442 14.4208 114.572 14.3294 114.638 14.225C114.703 14.1336 114.742 14.0292 114.742 13.9378C114.742 13.7943 114.677 13.6637 114.533 13.5593C114.403 13.4549 114.233 13.3635 113.998 13.2722C113.776 13.1939 113.502 13.1286 113.202 13.0503C112.902 12.985 112.575 12.9198 112.236 12.8545C111.897 12.7892 111.544 12.7109 111.192 12.6326C110.826 12.5543 110.474 12.4629 110.135 12.3455C109.795 12.2411 109.469 12.1236 109.169 11.98C108.868 11.8364 108.607 11.6668 108.373 11.471C108.151 11.2752 107.968 11.0403 107.837 10.7923C107.707 10.5312 107.642 10.231 107.642 9.89169C107.642 9.50012 107.707 9.14772 107.85 8.86057C107.981 8.57342 108.177 8.32544 108.412 8.1166C108.66 7.92082 108.934 7.75114 109.247 7.62062C109.56 7.4901 109.887 7.39874 110.239 7.32042C110.591 7.25516 110.944 7.20296 111.296 7.17685C111.649 7.15075 111.988 7.1377 112.301 7.1377C112.654 7.1377 113.019 7.1638 113.385 7.1899C113.763 7.22906 114.128 7.28127 114.494 7.34653C114.846 7.41179 115.199 7.47705 115.538 7.56841C115.864 7.64673 116.178 7.73809 116.465 7.82946V9.91779C116.295 9.83948 116.073 9.74811 115.786 9.6437C115.499 9.53928 115.186 9.43486 114.833 9.3435C114.481 9.23908 114.089 9.16077 113.672 9.10856C113.254 9.0433 112.823 9.00414 112.38 9.00414C112.04 9.00414 111.74 9.0172 111.492 9.0433C111.244 9.05635 111.022 9.09551 110.865 9.12161C110.696 9.16077 110.552 9.19992 110.461 9.25213C110.356 9.29129 110.278 9.3435 110.226 9.38265C110.174 9.43486 110.148 9.48707 110.135 9.53928C110.108 9.57844 110.108 9.63064 110.108 9.6698C110.108 9.80032 110.174 9.91779 110.304 10.0092C110.435 10.1136 110.617 10.1919 110.839 10.2702C111.074 10.3485 111.335 10.4268 111.636 10.4921C111.949 10.5573 112.262 10.6357 112.601 10.7009C112.941 10.7792 113.293 10.8575 113.659 10.9359C114.024 11.0272 114.376 11.1316 114.716 11.2361C115.055 11.3535 115.381 11.484 115.682 11.6407C115.982 11.7842 116.243 11.967 116.478 12.1627C116.7 12.3716 116.882 12.6065 117.013 12.8676Z" fill="#402913"/>
<path d="M106.138 10.401C106.268 10.8448 106.334 11.3538 106.334 11.9281C106.334 12.5155 106.268 13.0245 106.138 13.4813C106.02 13.9251 105.838 14.3167 105.603 14.656C105.381 14.9823 105.094 15.2695 104.78 15.5044C104.454 15.7393 104.089 15.9221 103.697 16.0656C103.306 16.2092 102.875 16.3006 102.418 16.3658C101.961 16.4311 101.491 16.4703 100.995 16.4703H95.2524V7.41211H100.982C101.478 7.41211 101.948 7.45127 102.405 7.50347C102.862 7.56873 103.293 7.67315 103.684 7.81672C104.089 7.9603 104.454 8.14303 104.767 8.37796C105.094 8.59985 105.381 8.88699 105.603 9.22635C105.838 9.55265 106.02 9.94421 106.138 10.401ZM103.697 13.0637C103.815 12.7504 103.867 12.3719 103.867 11.9281C103.867 11.4974 103.815 11.1189 103.697 10.8057C103.593 10.4793 103.41 10.2183 103.162 10.0095C102.914 9.80064 102.588 9.64402 102.196 9.5396C101.792 9.43518 101.309 9.38297 100.734 9.38297H97.6932V14.4994H100.734C101.309 14.4994 101.792 14.4472 102.196 14.3428C102.588 14.2383 102.914 14.0817 103.162 13.8729C103.41 13.651 103.593 13.39 103.697 13.0637Z" fill="#402913"/>
<path d="M93.6696 9.00405C93.8392 9.39561 93.9306 9.82633 93.9306 10.2962V16.4698H91.4899V11.3926C91.4899 11.0532 91.4638 10.753 91.4115 10.4789C91.3463 10.2048 91.2419 9.9699 91.0852 9.77412C90.9286 9.57834 90.7198 9.42172 90.4326 9.3173C90.1585 9.21288 89.7931 9.14762 89.3624 9.14762C89.023 9.14762 88.6706 9.19983 88.3052 9.2912C87.9397 9.38256 87.5742 9.50003 87.2218 9.6436C86.8564 9.80023 86.517 9.9699 86.1907 10.1657C85.8644 10.3615 85.5642 10.5703 85.3162 10.7922V16.4698H82.8755V7.4117H85.3162V8.65164C85.6164 8.48197 85.9427 8.29924 86.2951 8.12956C86.6475 7.95988 87.013 7.80326 87.4046 7.65968C87.7961 7.51611 88.2138 7.39864 88.6445 7.30728C89.0883 7.22897 89.5451 7.17676 90.0411 7.17676C90.6415 7.17676 91.1897 7.25507 91.6726 7.39864C92.1555 7.55527 92.5601 7.7641 92.8995 8.02514C93.2258 8.29924 93.4868 8.62554 93.6696 9.00405Z" fill="#402913"/>
<path d="M81.5692 16.4703H79.1284V7.41211H81.5692V16.4703Z" fill="#402913"/>
<path d="M77.5738 8.991C77.7304 9.35646 77.8087 9.73497 77.8218 10.1526V16.4698H75.381V10.505C75.381 10.257 75.3419 10.0482 75.2636 9.87854C75.1853 9.69581 75.0939 9.56529 74.9634 9.44782C74.8328 9.3434 74.6893 9.25204 74.5196 9.19983C74.3499 9.14762 74.1672 9.12152 73.9845 9.12152C73.11 9.12152 72.105 9.52613 70.9825 10.3093C70.9955 10.3876 71.0086 10.4789 71.0086 10.5703C71.0216 10.6747 71.0216 10.7791 71.0216 10.8835V16.4698H68.5809V10.4528C68.5809 10.2048 68.5417 10.0091 68.4634 9.83938C68.3851 9.66971 68.2807 9.52613 68.1502 9.42172C68.0327 9.3173 67.8761 9.23899 67.7064 9.19983C67.5367 9.14762 67.354 9.12152 67.1713 9.12152C66.9363 9.12152 66.7014 9.16067 66.4534 9.22593C66.1924 9.2912 65.9444 9.38256 65.6833 9.50003C65.4223 9.6175 65.1743 9.76107 64.9263 9.9177C64.6783 10.0874 64.4434 10.257 64.2215 10.4528V16.4698H61.7808V7.4117H64.2215V8.40365C64.4303 8.27313 64.6653 8.12956 64.9263 7.98599C65.1743 7.84241 65.4484 7.71189 65.7486 7.59442C66.0357 7.47696 66.362 7.37254 66.7014 7.29423C67.0408 7.21591 67.4062 7.17676 67.7978 7.17676C68.1893 7.17676 68.5287 7.22897 68.8158 7.30728C69.103 7.38559 69.364 7.49001 69.5729 7.62053C69.7817 7.75105 69.9644 7.89462 70.108 8.05125C70.2646 8.22092 70.3951 8.37755 70.4996 8.53417C70.8128 8.32534 71.1261 8.14261 71.4263 7.97293C71.7264 7.81631 72.0267 7.67274 72.3399 7.55527C72.6532 7.4378 72.9664 7.34644 73.2797 7.28117C73.606 7.21591 73.9323 7.17676 74.2847 7.17676C74.8329 7.17676 75.3288 7.25507 75.7726 7.4117C76.2033 7.56832 76.5818 7.77715 76.882 8.05125C77.1822 8.31229 77.4172 8.62554 77.5738 8.991Z" fill="#402913"/>
<path d="M33.9048 7.41211H44.0332V9.38297H40.1828V16.4572H37.7421V9.38297H33.9048V7.41211Z" fill="#402913"/>
<path d="M22.4717 7.41211H32.6001V9.38297H28.7497V16.4572H26.309V9.38297H22.4717V7.41211Z" fill="#402913"/>
<path d="M20.7649 9.04364C21.026 9.44825 21.1565 9.93118 21.1565 10.4924V16.4833H18.7158V15.5958C18.4025 15.7655 18.0632 15.9221 17.7108 16.0526C17.3584 16.1831 16.9798 16.3006 16.5883 16.392C16.2098 16.4833 15.8052 16.5486 15.4005 16.6008C14.9829 16.64 14.5783 16.6661 14.1606 16.6661C13.6646 16.6661 13.1947 16.6269 12.7379 16.5225C12.2941 16.4311 11.8895 16.2875 11.5371 16.0787C11.1847 15.8699 10.8976 15.6088 10.6887 15.2695C10.4799 14.9301 10.3755 14.5255 10.3755 14.0426C10.3755 13.4291 10.5321 12.9332 10.8715 12.5155C11.1978 12.1109 11.7199 11.7846 12.3986 11.5235C13.0773 11.2625 13.9518 11.0667 14.9959 10.9231C16.0401 10.7796 17.28 10.6751 18.7158 10.5968V10.4011C18.7158 10.2575 18.6766 10.1009 18.5983 9.95728C18.52 9.81371 18.3764 9.68319 18.1676 9.56572C17.9587 9.46131 17.6716 9.36994 17.3061 9.29163C16.9407 9.22637 16.4839 9.18721 15.9226 9.18721C15.4789 9.18721 15.0351 9.21332 14.6044 9.25247C14.1736 9.30468 13.756 9.36994 13.3514 9.44825C12.9598 9.52657 12.5813 9.61793 12.2158 9.72235C11.8504 9.82676 11.5241 9.94423 11.2369 10.0486V7.882C11.5371 7.80369 11.8895 7.72538 12.268 7.64707C12.6466 7.56875 13.0512 7.50349 13.4558 7.45128C13.8734 7.39908 14.2911 7.35992 14.7088 7.32076C15.1264 7.29466 15.5311 7.26855 15.9226 7.26855C16.6796 7.26855 17.3845 7.33382 18.024 7.46434C18.6636 7.58181 19.2118 7.77759 19.6816 8.03863C20.1384 8.31272 20.5039 8.63902 20.7649 9.04364ZM18.7158 13.5466V12.3589C17.776 12.398 16.9798 12.4502 16.3272 12.5155C15.6616 12.5808 15.1134 12.6591 14.6827 12.7374C14.252 12.8287 13.9126 12.9201 13.6646 13.0245C13.4166 13.1289 13.2208 13.2334 13.1034 13.3378C12.9859 13.4422 12.9076 13.5466 12.8815 13.651C12.8423 13.7554 12.8293 13.8468 12.8293 13.9382C12.8293 14.0426 12.8684 14.147 12.9206 14.2514C12.9729 14.3428 13.0773 14.4341 13.2208 14.4994C13.3644 14.5777 13.5471 14.643 13.7821 14.6821C14.0301 14.7213 14.3303 14.7474 14.6827 14.7474C15.0873 14.7474 15.4789 14.7213 15.8574 14.656C16.2359 14.5908 16.6013 14.5125 16.9407 14.408C17.28 14.2906 17.6063 14.1731 17.9065 14.0165C18.2067 13.8729 18.4808 13.7163 18.7158 13.5466Z" fill="#402913"/>
<path d="M4.43771 14.4075H9.0712V16.4175H3.92868C3.22387 16.4175 2.61042 16.3523 2.11444 16.2348C1.61846 16.1304 1.21384 15.9476 0.900594 15.6997C0.574292 15.4517 0.352406 15.1515 0.208833 14.773C0.0652605 14.4075 0 13.9507 0 13.4416V7.35938H2.44074V12.5411C2.44074 12.9196 2.46684 13.2328 2.54516 13.4678C2.61042 13.7027 2.72789 13.8985 2.88451 14.042C3.04114 14.1726 3.24997 14.277 3.49796 14.3292C3.759 14.3814 4.07225 14.4075 4.43771 14.4075Z" fill="#402913"/>
<path fill-rule="evenodd" clip-rule="evenodd" d="M47.3074 11.565C47.3228 11.5621 47.3382 11.5593 47.3536 11.5565C47.6272 11.5075 47.9177 11.4693 48.1904 11.4526C48.4453 11.437 48.7539 11.4354 49.0309 11.4952C49.5819 11.6142 50.3565 11.4339 50.9583 10.7027C51.4956 10.05 52.1559 9.84667 52.736 9.81379C52.7288 9.79957 52.7213 9.78536 52.7137 9.77119C52.5823 9.52852 52.3772 9.28453 52.0365 9.09418C51.691 8.90111 51.1534 8.73418 50.3169 8.73418C49.4955 8.73418 48.9298 8.91341 48.5358 9.15131C48.1429 9.38845 47.8648 9.71751 47.6696 10.107C47.4455 10.5542 47.3375 11.0708 47.3074 11.565ZM53.9298 10.8551C54.9053 10.936 54.9054 10.9354 54.9054 10.9348L54.9055 10.9335L54.9058 10.9307L54.9063 10.9242C54.9066 10.9194 54.907 10.9139 54.9074 10.9076C54.9082 10.895 54.909 10.8793 54.9098 10.8607C54.9113 10.8236 54.9125 10.7748 54.9122 10.7158C54.9114 10.5983 54.9045 10.4382 54.8808 10.2492C54.834 9.87544 54.7187 9.3625 54.4354 8.83922C54.1473 8.30693 53.6911 7.77595 52.9915 7.38507C52.2969 6.99692 51.4154 6.77637 50.3169 6.77637C49.2034 6.77637 48.2742 7.02228 47.5239 7.47525C46.7723 7.92898 46.2567 8.5565 45.9193 9.22989C45.2673 10.5308 45.2646 12.0238 45.438 13.0053C45.5284 13.6803 45.9665 14.64 46.7103 15.4338C47.4991 16.2755 48.6972 17.0005 50.3169 17.0005C51.8522 17.0005 52.9262 16.4938 53.6501 15.8955C54.004 15.6029 54.26 15.3006 54.4406 15.053C54.5309 14.9292 54.602 14.8195 54.6552 14.7348C54.6744 14.7041 54.6929 14.674 54.707 14.6512C54.7114 14.6441 54.7154 14.6377 54.7188 14.6321C54.7337 14.6079 54.7387 14.6003 54.7387 14.6003L55.2904 13.7933L53.6742 12.6884L53.1217 13.4965C53.0893 13.5438 53.0574 13.5948 53.0236 13.6489C52.8927 13.8581 52.7329 14.1136 52.4028 14.3864C52.0187 14.7039 51.3826 15.0427 50.3169 15.0427C49.3358 15.0427 48.6298 14.6189 48.139 14.0951C47.9476 13.8908 47.7974 13.6805 47.6829 13.4866C47.6883 13.4856 47.6937 13.4846 47.6991 13.4836C47.9148 13.4449 48.1283 13.4179 48.3097 13.4068C48.4001 13.4013 48.4751 13.4002 48.5336 13.4022C48.5877 13.4041 48.6135 13.4083 48.6173 13.4089C48.6178 13.409 48.6179 13.409 48.6176 13.4089C49.9192 13.69 51.4251 13.2164 52.47 11.9469C52.5802 11.813 52.6742 11.7761 52.86 11.7678C52.9772 11.7625 53.1101 11.7719 53.2959 11.7902C53.316 11.7922 53.3374 11.7943 53.36 11.7966C53.5173 11.8126 53.729 11.834 53.9298 11.834H54.8309L54.9053 10.936L53.9298 10.8551Z" fill="#FF5819"/>
<path fill-rule="evenodd" clip-rule="evenodd" d="M81.6427 1.29354L80.9959 1.87563C80.9526 1.91459 80.8918 1.97936 80.8341 2.06075C80.7762 2.14239 80.7344 2.22255 80.7111 2.29188C80.6883 2.35982 80.6892 2.39885 80.6916 2.41581L80.6917 2.41601C80.693 2.4251 80.697 2.45311 80.7424 2.50492C81.7715 3.68106 81.6654 4.9673 81.16 5.8097L80.7123 6.55584L79.22 5.66048L79.6677 4.91434C79.7496 4.77784 79.8041 4.59968 79.7905 4.40219C79.7775 4.21434 79.6996 3.95594 79.4327 3.6509C78.88 3.01925 78.874 2.29556 79.0615 1.73753C79.2343 1.22334 79.5729 0.815023 79.8317 0.582092L80.4785 0L81.6427 1.29354Z" fill="#FF5819"/>
</svg>
