<svg width="20" height="19" viewBox="0 0 20 19" fill="none" xmlns="http://www.w3.org/2000/svg">
<path d="M18.8344 6.36394L13.4134 5.57361L10.9905 0.660936C10.5563 -0.214737 9.29848 -0.225869 8.86064 0.660936L6.4377 5.57361L1.01669 6.36394C0.0445434 6.50494 -0.345057 7.70342 0.359934 8.38986L4.28191 12.2117L3.35429 17.6104C3.18732 18.5863 4.21512 19.3172 5.07595 18.8608L9.92555 16.3117L14.7751 18.8608C15.636 19.3135 16.6638 18.5863 16.4968 17.6104L15.5692 12.2117L19.4912 8.38986C20.1962 7.70342 19.8066 6.50494 18.8344 6.36394ZM13.6583 11.5883L14.5377 16.7236L9.92555 14.3007L5.31342 16.7236L6.19281 11.5883L2.46007 7.95203L7.61763 7.20251L9.92555 2.52731L12.2335 7.20251L17.391 7.95203L13.6583 11.5883Z" fill="#FF5819"/>
</svg>
