<svg width="20" height="19" viewBox="0 0 20 19" fill="none" xmlns="http://www.w3.org/2000/svg">
<path d="M18.8721 6.36463L13.4404 5.57383L11.0131 0.660918C10.7949 0.221914 10.3693 0 9.94362 0C9.52058 0 9.0979 0.218945 8.87895 0.660918L6.45089 5.57346L1.01882 6.36352C0.0446965 6.50453 -0.345694 7.70279 0.360497 8.38932L4.29001 12.2116L3.36005 17.6103C3.22794 18.3814 3.84358 19 4.53308 19C4.71602 19 4.90417 18.9566 5.08489 18.8608L9.94436 16.3122L14.8035 18.8616C14.9838 18.9562 15.1716 18.9993 15.3538 18.9993C16.044 18.9993 16.6608 18.3829 16.5287 17.6114L15.5998 12.2123L19.5301 8.3908C20.2367 7.70428 19.8463 6.50564 18.8721 6.36463ZM14.3544 10.9365L13.682 11.5904L13.8408 12.5137L14.5652 16.7237L10.7752 14.735L9.94474 14.2994L9.94585 2.52863L11.8395 6.36166L12.2544 7.20145L13.1825 7.33652L17.4215 7.95365L14.3544 10.9365Z" fill="#FF5819"/>
</svg>
