<svg width="1040" height="127" viewBox="0 0 1040 127" fill="none" xmlns="http://www.w3.org/2000/svg">
<path fill-rule="evenodd" clip-rule="evenodd" d="M259.338 1117.44C147.489 1087.32 19.2416 1137.52 -74.0879 1058.27C-180.745 967.695 -283.844 831.078 -284.016 656.03C-284.186 482.302 -148.968 351.58 -74.9347 196.33C-2.96131 45.3999 28.4337 -144.805 143.168 -239.783C262.439 -338.517 410.095 -350.543 536.823 -310.092C657.37 -271.614 731.393 -137.995 815.98 -25.0246C904.2 92.7987 1048.28 185.636 1039.14 360.772C1029.89 537.823 850.369 625.153 773.853 781.418C701.546 929.087 726.581 1164.23 607.705 1241.86C488.767 1319.54 380.909 1150.18 259.338 1117.44Z" fill="#FFF7E1"/>
</svg>
