<svg width="1600" height="194" viewBox="0 0 1600 194" fill="none" xmlns="http://www.w3.org/2000/svg">
<path fill-rule="evenodd" clip-rule="evenodd" d="M0 72.8113L66.6667 93.0367C133.333 113.262 266.667 153.713 400 169.893C533.333 186.073 666.667 177.983 800 157.758C933.333 137.533 1066.67 105.172 1200 76.8564C1333.33 48.5409 1466.67 24.2704 1533.33 12.1352L1600 0V194.164H1533.33C1466.67 194.164 1333.33 194.164 1200 194.164C1066.67 194.164 933.333 194.164 800 194.164C666.667 194.164 533.333 194.164 400 194.164C266.667 194.164 133.333 194.164 66.6667 194.164H0V72.8113Z" fill="#FFF7E1"/>
</svg>
