<svg width="1600" height="195" viewBox="0 0 1600 195" fill="none" xmlns="http://www.w3.org/2000/svg">
<path fill-rule="evenodd" clip-rule="evenodd" d="M1600 121.352L1533.33 101.126C1466.67 80.901 1333.33 40.4503 1200 24.27C1066.67 8.08971 933.333 16.1799 800 36.4052C666.667 56.6306 533.333 88.9912 400 117.307C266.667 145.622 133.333 169.893 66.6666 182.028L0 194.163V-0.000442505H66.6666C133.333 -0.000442505 266.667 -0.000442505 400 -0.000442505C533.333 -0.000442505 666.667 -0.000442505 800 -0.000442505C933.333 -0.000442505 1066.67 -0.000442505 1200 -0.000442505C1333.33 -0.000442505 1466.67 -0.000442505 1533.33 -0.000442505H1600V121.352Z" fill="#FFF7E1"/>
</svg>
