<svg width="366" height="668" viewBox="0 0 366 668" fill="none" xmlns="http://www.w3.org/2000/svg">
<path fill-rule="evenodd" clip-rule="evenodd" d="M445.143 894.716C367.07 896.452 292.887 948.629 217.944 918.021C132.299 883.041 40.6314 820.167 8.83541 716.516C-22.7208 613.647 41.4127 512.556 61.3807 407.645C80.793 305.653 66.7495 187.501 124.053 111.165C183.623 31.811 277.316 -1.15364 366.921 0.626251C452.154 2.31929 524.401 68.5065 599.77 120.615C678.377 174.961 788.731 204.732 814.492 310.066C840.533 416.551 739.783 499.695 718.387 605.641C698.168 705.76 756.984 840.652 693.852 907.441C630.688 974.265 530.002 892.83 445.143 894.716Z" fill="#FFF7E1"/>
</svg>
