<svg width="1040" height="924" viewBox="0 0 1040 924" fill="none" xmlns="http://www.w3.org/2000/svg">
<path fill-rule="evenodd" clip-rule="evenodd" d="M259.338 990.444C147.489 960.325 19.2416 1010.52 -74.0879 931.268C-180.745 840.695 -283.844 704.078 -284.016 529.03C-284.186 355.302 -148.968 224.58 -74.9347 69.3297C-2.96131 -81.6001 28.4337 -271.805 143.168 -366.783C262.439 -465.517 410.095 -477.543 536.823 -437.092C657.37 -398.614 731.393 -264.995 815.98 -152.025C904.2 -34.2013 1048.28 58.6356 1039.14 233.772C1029.89 410.823 850.369 498.153 773.853 654.418C701.546 802.087 726.581 1037.23 607.705 1114.86C488.767 1192.54 380.909 1023.18 259.338 990.444Z" fill="#FFF7E1"/>
</svg>
