<svg width="36" height="40" viewBox="0 0 36 40" fill="none" xmlns="http://www.w3.org/2000/svg">
<path d="M27.3631 27.2539H22.418V32.199H27.3631V27.2539Z" fill="#FF5819"/>
<path d="M27.3631 20.2207H22.418V25.0559H27.3631V20.2207Z" fill="#FF5819"/>
<path d="M8.68131 0H6.15381V4.72532H8.68131V0Z" fill="#FF5819"/>
<path d="M29.0114 0H26.4839V4.72532H29.0114V0Z" fill="#FF5819"/>
<path d="M20.2201 27.2539H14.9453V32.199H20.2201V27.2539Z" fill="#FF5819"/>
<path d="M20.2201 20.2207H14.9453V25.0559H20.2201V20.2207Z" fill="#FF5819"/>
<path d="M0 36.7259C0 38.5391 1.48353 40.0007 3.29674 40.0007H31.8684C33.6816 40.0007 35.1652 38.5391 35.1652 36.7259V12.418H0V36.7259ZM5.60445 19.1213C5.60445 18.5169 6.09896 18.0224 6.70336 18.0224H28.4618C29.0662 18.0224 29.5607 18.5169 29.5607 19.1213V33.1874C29.5607 33.7918 29.0662 34.2863 28.4618 34.2863H6.70336C6.09896 34.2863 5.60445 33.7918 5.60445 33.1874V19.1213Z" fill="#FF5819"/>
<path d="M31.8684 3.40625H31.2091V5.82386C31.2091 6.42826 30.7585 6.92277 30.1432 6.92277H25.3519C24.7475 6.92277 24.286 6.42826 24.286 5.82386V3.40625H10.8792V5.82386C10.8792 6.42826 10.4177 6.92277 9.81328 6.92277H5.02203C4.41763 6.92277 3.95608 6.42826 3.95608 5.82386V3.40625H3.29674C1.48353 3.40625 0 4.93374 0 6.75793V10.2195H35.1652V6.75793C35.1652 4.93374 33.6816 3.40625 31.8684 3.40625Z" fill="#FF5819"/>
<path d="M12.7473 20.2207H7.80225V25.0559H12.7473V20.2207Z" fill="#FF5819"/>
<path d="M12.7473 27.2539H7.80225V32.199H12.7473V27.2539Z" fill="#FF5819"/>
</svg>
