<svg width="44" height="50" viewBox="0 0 44 50" fill="none" xmlns="http://www.w3.org/2000/svg">
<path d="M34.2033 34.0664H28.022V40.2477H34.2033V34.0664Z" fill="#402913"/>
<path d="M34.2033 25.2744H28.022V31.3184H34.2033V25.2744Z" fill="#402913"/>
<path d="M10.8517 0H7.69238V5.90659H10.8517V0Z" fill="#402913"/>
<path d="M36.2638 0H33.1045V5.90659H36.2638V0Z" fill="#402913"/>
<path d="M25.2748 34.0664H18.6814V40.2477H25.2748V34.0664Z" fill="#402913"/>
<path d="M25.2748 25.2744H18.6814V31.3184H25.2748V25.2744Z" fill="#402913"/>
<path d="M0 45.9071C0 48.1736 1.8544 50.0005 4.12088 50.0005H39.8352C42.1016 50.0005 43.956 48.1736 43.956 45.9071V15.5225H0V45.9071ZM7.00549 23.9016C7.00549 23.1461 7.62363 22.528 8.37912 22.528H35.5769C36.3324 22.528 36.9505 23.1461 36.9505 23.9016V41.484C36.9505 42.2395 36.3324 42.8576 35.5769 42.8576H8.37912C7.62363 42.8576 7.00549 42.2395 7.00549 41.484V23.9016Z" fill="#402913"/>
<path d="M39.8352 4.25781H39.011V7.27979C39.011 8.03528 38.4478 8.65342 37.6786 8.65342H31.6896C30.9341 8.65342 30.3571 8.03528 30.3571 7.27979V4.25781H13.5989V7.27979C13.5989 8.03528 13.022 8.65342 12.2665 8.65342H6.27747C5.52198 8.65342 4.94505 8.03528 4.94505 7.27979V4.25781H4.12088C1.8544 4.25781 0 6.16715 0 8.44737V12.7743H43.956V8.44737C43.956 6.16715 42.1016 4.25781 39.8352 4.25781Z" fill="#402913"/>
<path d="M15.934 25.2744H9.75269V31.3184H15.934V25.2744Z" fill="#402913"/>
<path d="M15.934 34.0664H9.75269V40.2477H15.934V34.0664Z" fill="#402913"/>
</svg>
