<svg width="40" height="40" viewBox="0 0 40 40" fill="none" xmlns="http://www.w3.org/2000/svg">
<path fill-rule="evenodd" clip-rule="evenodd" d="M26.2069 38.6218V39.3192C26.2069 39.699 25.8979 40.008 25.5164 40.008H7.58549C7.2057 40.008 6.89669 39.699 6.89669 39.3192V38.6218H26.2069ZM4.77502 37.2424H28.3269L32.596 36.072C32.8947 35.9909 33.1035 35.7181 33.1035 35.4074V34.9758C33.1035 34.7031 32.8826 34.4838 32.6098 34.4838H0.492002C0.219246 34.4838 0 34.7031 0 34.9758V35.4074C0 35.7181 0.207155 35.9909 0.507514 36.072L4.77502 37.2424ZM32.413 15.8623V19.7015C32.413 25.4396 29.4696 30.4321 25.3522 33.1044H7.74922C3.63201 30.4321 0.688485 25.4396 0.688485 19.7015V15.8623H32.413ZM11.8786 31.0258C12.4656 31.2916 13.0698 31.5161 13.6878 31.6973C14.0538 31.8043 14.437 31.5937 14.544 31.2278C14.6511 30.8618 14.4405 30.4786 14.0745 30.3732C13.5186 30.211 12.9748 30.009 12.4483 29.769C12.1013 29.6119 11.6922 29.7656 11.5351 30.1126C11.378 30.4596 11.5316 30.8687 11.8786 31.0258ZM3.97734 19.9704C4.31742 23.4973 5.65358 26.028 7.88914 28.2637C8.43638 28.8092 9.02331 29.3047 9.64652 29.7449C9.95725 29.9641 10.3871 29.8916 10.6081 29.5809C10.8273 29.2702 10.7531 28.8403 10.4424 28.6194C9.88477 28.224 9.35653 27.7787 8.86452 27.2884C6.85511 25.279 5.65535 23.0072 5.3498 19.8379C5.31355 19.4598 4.97519 19.1819 4.59715 19.2182C4.21909 19.2544 3.94105 19.5924 3.97734 19.9704ZM33.7922 13.7936H35.9622C37.0325 13.7936 38.0597 14.2182 38.8175 14.9744C39.5736 15.7322 40 16.7594 40 17.8296V19.1226C40 21.5325 39.0971 23.8442 37.4951 25.5461C35.9242 27.2206 33.8043 28.177 31.5861 28.2271C32.539 26.6993 33.2019 25.004 33.5368 23.2328C35.0266 22.3403 36.0364 20.507 36.0364 18.6062V18.6045C36.0364 18.2264 35.7309 17.9209 35.3528 17.9209H33.7923L33.7922 13.7936ZM32.4129 14.4824V11.7237C32.4129 11.344 32.1039 11.035 31.7241 11.035H1.37936C0.997845 11.035 0.688838 11.344 0.688838 11.7237V14.4824H32.4129ZM22.7576 9.56058C22.8992 9.27919 23.0045 8.95465 23.058 8.61975C23.184 7.84982 23.0666 6.91244 22.4313 5.98544C21.4939 4.6182 22.635 3.1802 22.635 3.1802C22.8681 2.8781 22.8111 2.44478 22.5107 2.21347C22.2086 1.98042 21.7753 2.03567 21.544 2.33604C21.544 2.33604 19.8142 4.60955 21.2937 6.76551C21.9859 7.77365 21.7494 8.80428 21.3835 9.15817C21.109 9.42402 21.1021 9.86076 21.3679 10.1335C21.632 10.408 22.0688 10.4149 22.3433 10.1508C22.4865 10.0092 22.6333 9.80915 22.7576 9.56058ZM16.2254 0.26809C16.2254 0.26809 14.0658 3.09919 15.9078 5.78207C16.8831 7.20456 16.5137 8.65979 15.9975 9.15869C15.7231 9.42453 15.7162 9.86127 15.982 10.134C16.2461 10.4085 16.6829 10.4154 16.9556 10.1513C17.7446 9.38825 18.5317 7.16826 17.0454 5.00368C15.7455 3.10647 17.3164 1.1126 17.3164 1.1126C17.5495 0.810505 17.4942 0.377187 17.1921 0.144156C16.89 -0.0888917 16.4584 -0.0340096 16.2254 0.26809ZM10.5029 2.31892C10.5029 2.31892 11.5732 3.66371 10.6945 4.94288C9.53957 6.62602 10.1714 8.35229 10.7842 8.94444C11.057 9.20856 11.4938 9.20166 11.7596 8.92718C12.0237 8.65442 12.0168 8.21765 11.744 7.95183C11.4022 7.62211 11.1882 6.66228 11.8321 5.72317C13.2511 3.65507 11.5939 1.47476 11.5939 1.47476C11.3608 1.17438 10.9275 1.11741 10.6271 1.35046C10.325 1.58351 10.2698 2.01681 10.5029 2.31892Z" fill="#FF5819"/>
</svg>
