<svg width="378" height="603" viewBox="0 0 378 603" fill="none" xmlns="http://www.w3.org/2000/svg">
<path d="M362.103 88.9622C358.243 86.6622 353.396 84.5145 347.396 82.4684C341.403 63.5455 334.06 40.3345 332.282 34.6823C331.687 30.9238 329.786 26.3237 324.831 22.0719C321.921 19.5759 318.177 17.3847 313.374 15.3821C305.799 12.2186 295.344 9.43242 282.291 7.10334C256.627 2.52499 222.852 0 187.183 0C151.579 0 117.796 2.56126 92.0459 7.21217C79.0074 9.57027 68.5447 12.3782 60.9624 15.5707C56.1664 17.5878 52.4225 19.7863 49.5129 22.2895C44.5791 26.5414 42.6853 31.127 42.0831 34.8709C40.1749 40.8932 32.092 66.3534 27.0565 82.1999C20.9255 84.246 15.9916 86.3719 12.088 88.643C0.544181 95.369 0 103.619 0 109.351C0 109.438 0.224928 126.169 0.224928 126.169C0.703804 130.247 1.81393 136.233 8.8447 141.61C10.2741 142.705 11.406 143.75 13.2054 144.766L42.1339 566.954C42.3951 570.879 43.9188 576.611 50.2603 581.712C53.1916 584.07 56.8775 586.152 61.6372 588.068C69.2557 591.13 79.6677 593.829 92.6409 596.085C118.261 600.54 151.833 603 187.197 603C222.562 603 256.141 600.548 281.761 596.085C294.734 593.829 305.168 591.13 312.786 588.068C317.546 586.152 321.29 584.077 324.221 581.712C330.563 576.604 332.21 570.879 332.464 566.946L361.632 144.592C368.51 140.514 373.865 135.725 375.904 130.095L377.747 127.751V125.226C377.747 125.226 376.782 110.265 376.782 109.576C376.782 103.902 373.429 95.7173 362.103 88.9622ZM95.0135 24.2776C119.545 19.9967 152.203 17.6459 186.972 17.6459C221.742 17.6459 254.4 20.004 278.931 24.2776C307.794 29.3131 314.295 35.2047 314.295 36.8735C314.295 38.5423 307.802 44.4339 278.931 49.4694C254.4 53.7503 221.742 56.1011 186.972 56.1011C152.203 56.1011 119.545 53.743 95.0135 49.4694C66.1503 44.4339 59.6492 38.5423 59.6492 36.8735C59.6492 35.2047 66.1503 29.3131 95.0135 24.2776ZM33.7463 95.2021L29.7339 107.842L36.605 110.026L57.2766 44.9201C59.2356 46.393 61.7823 47.7861 64.9676 49.0994C71.8025 51.9218 81.4961 54.4323 93.78 56.5728C118.703 60.9189 151.804 63.3133 186.972 63.3133C222.141 63.3133 255.241 60.9189 280.165 56.5728C292.448 54.4323 302.142 51.9146 308.977 49.0994C312.155 47.7861 314.716 46.4002 316.668 44.9273L337.34 110.026L344.211 107.842L340.22 95.2747C353.73 99.5701 361.399 104.301 361.399 109.576C361.399 110.265 361.385 125.212 361.385 125.212C360.899 126.554 359.912 127.896 358.454 129.217C358.432 129.239 358.41 129.253 358.388 129.275C355.9 131.51 347.751 136.117 347.751 136.117C340.358 139.346 327.784 143.235 306.075 146.863C273.613 152.29 231.312 155.272 186.98 155.272C141.494 155.272 98.2858 152.159 65.3159 146.5C45.8125 143.155 33.9132 139.68 26.6502 136.719C26.6502 136.719 13.1401 128.382 12.6902 124.493C12.6902 124.493 12.5596 109.423 12.5596 109.351C12.5379 104.09 20.2289 99.454 33.7463 95.2021ZM318.09 566.018C317.321 578.265 259.014 588.605 187.19 588.605C115.358 588.605 57.0516 578.265 56.2898 566.018L27.1799 144.534C36.3003 147.922 48.7003 150.977 64.0897 153.618C97.4514 159.343 141.087 162.492 186.972 162.492C231.696 162.492 274.418 159.466 307.257 153.981C324.345 151.129 337.681 147.821 347.229 144.106L318.09 566.018Z" fill="#402913"/>
<path d="M192.286 299H207.428V306.571H199.857V314.142H184.713V336.859H169.571V329.286H177.142V306.571H192.286V299Z" fill="#402913"/>
<path d="M109 299V352.001H162.001V299H109ZM154.428 344.428H116.571V306.571H154.428V344.428Z" fill="#402913"/>
<path d="M215.001 299V352.001H268V299H215.001ZM260.427 344.428H222.572V306.571H260.429L260.427 344.428Z" fill="#402913"/>
<path d="M146.855 314.142H124.14V336.857H146.855V314.142Z" fill="#402913"/>
<path d="M252.857 314.142H230.142V336.857H252.857V314.142Z" fill="#402913"/>
<path d="M199.859 321.715H192.289V329.286H199.859V321.715Z" fill="#402913"/>
<path d="M199.856 329.286H207.426V359.572H199.856V344.428H192.285V352.001H184.711V336.859H199.856V329.286Z" fill="#402913"/>
<path d="M169.57 344.428H177.141V352.001H184.712V359.572H177.141V374.714H184.712V367.143H192.285V359.572H199.856V382.287H184.712V389.858H177.141V382.287H169.57V367.143H154.426V359.572H169.57V344.428Z" fill="#402913"/>
<path d="M139.282 359.571H124.14V367.145H139.282V359.571Z" fill="#402913"/>
<path d="M207.429 359.571H222.573V367.142H215.002V374.713H207.429V359.571Z" fill="#402913"/>
<path d="M237.715 359.571H230.142V367.145H237.715V359.571Z" fill="#402913"/>
<path d="M109 367.143H124.142V374.713H131.715V382.287H124.142V389.858H116.571V374.713H109V367.143Z" fill="#402913"/>
<path d="M139.285 367.143H154.427V374.713H146.856V382.287H154.427V389.858H139.285V367.143Z" fill="#402913"/>
<path d="M237.716 367.143H245.289V374.713H252.86V397.428H245.289V389.858H230.143V397.428H222.574V382.287H237.716V367.143Z" fill="#402913"/>
<path d="M161.997 374.714H154.426V382.287H161.997V374.714Z" fill="#402913"/>
<path d="M268.001 374.714H260.427V382.287H268.001V374.714Z" fill="#402913"/>
<path d="M161.999 382.286H169.57V397.428H154.426V389.857H161.999V382.286Z" fill="#402913"/>
<path d="M207.43 382.286H199.856V389.857H207.43V382.286Z" fill="#402913"/>
<path d="M116.571 389.857H109V397.431H116.571V389.857Z" fill="#402913"/>
<path d="M131.711 389.857H124.14V397.431H131.711V389.857Z" fill="#402913"/>
<path d="M184.713 389.857H199.857V397.428H192.286V412.572H184.713V427.714H177.142V412.572H169.571V397.428H177.142V404.999H184.713V389.857Z" fill="#402913"/>
<path d="M215.002 389.857H207.429V397.431H215.002V389.857Z" fill="#402913"/>
<path d="M268.001 389.857H260.427V397.431H268.001V389.857Z" fill="#402913"/>
<path d="M207.43 397.429H199.856V412.57H207.43V397.429Z" fill="#402913"/>
<path d="M245.288 397.429H237.715V412.57H245.288V397.429Z" fill="#402913"/>
<path d="M260.43 397.429H252.86V405H260.43V397.429Z" fill="#402913"/>
<path d="M222.574 404.999H230.142V412.572H237.715V427.714H260.428V435.285H230.142V450.427H222.574V435.285H215.003V442.858H207.429V450.427H215.003V458H177.144V450.427H199.859V435.285H207.429V412.572H222.574V404.999Z" fill="#402913"/>
<path d="M109 404.999V458H162.001V404.999H109ZM154.428 450.427H116.571V412.572H154.428V450.427Z" fill="#402913"/>
<path d="M199.859 412.572H192.289V420.143H199.859V412.572Z" fill="#402913"/>
<path d="M260.426 412.572H245.287V420.143H260.426V412.572Z" fill="#402913"/>
<path d="M146.855 420.141H124.14V442.856H146.855V420.141Z" fill="#402913"/>
<path d="M268.001 420.141H260.427V427.714H268.001V420.141Z" fill="#402913"/>
<path d="M169.571 427.714H177.142V435.285H184.713V442.858H169.571V427.714Z" fill="#402913"/>
<path d="M199.853 427.714H184.711V435.285H199.853V427.714Z" fill="#402913"/>
<path d="M252.858 442.858H245.287V450.429H252.858V442.858Z" fill="#402913"/>
<path d="M268.001 442.858H260.427V450.429H268.001V442.858Z" fill="#402913"/>
<path d="M237.715 450.427H230.142V458H237.715V450.427Z" fill="#402913"/>
</svg>
