<svg width="50" height="50" viewBox="0 0 50 50" fill="none" xmlns="http://www.w3.org/2000/svg">
<path fill-rule="evenodd" clip-rule="evenodd" d="M32.7521 48.2676V49.1392C32.7521 49.6138 32.366 50 31.8892 50H9.47997C9.00533 50 8.61915 49.6138 8.61915 49.1392V48.2676H32.7521ZM5.96759 46.5438H35.4015L40.7369 45.0811C41.1101 44.9797 41.3712 44.6388 41.3712 44.2505V43.7111C41.3712 43.3702 41.095 43.0962 40.7541 43.0962H0.61488C0.274004 43.0962 0 43.3702 0 43.7111V44.2505C0 44.6388 0.258892 44.9797 0.634266 45.0811L5.96759 46.5438ZM40.5081 19.8239V24.622C40.5081 31.7931 36.8297 38.0325 31.684 41.3723H9.6846C4.53911 38.0326 0.860435 31.7931 0.860435 24.622V19.8239H40.5081ZM14.8453 38.7745C15.5788 39.1068 16.334 39.3873 17.1063 39.6138C17.5637 39.7475 18.0427 39.4843 18.1764 39.0269C18.3102 38.5696 18.047 38.0906 17.5896 37.959C16.8949 37.7562 16.2153 37.5038 15.5573 37.2039C15.1237 37.0076 14.6124 37.1996 14.416 37.6332C14.2197 38.0669 14.4117 38.5782 14.8453 38.7745ZM4.97068 24.9581C5.3957 29.3658 7.06557 32.5285 9.85946 35.3226C10.5434 36.0044 11.2769 36.6236 12.0557 37.1737C12.4441 37.4477 12.9813 37.3571 13.2575 36.9688C13.5314 36.5804 13.4387 36.0432 13.0503 35.7671C12.3535 35.273 11.6933 34.7164 11.0784 34.1037C8.56718 31.5924 7.06778 28.7533 6.68592 24.7924C6.64061 24.3199 6.21775 23.9726 5.74529 24.0179C5.27281 24.0632 4.92534 24.4856 4.97068 24.9581ZM42.2319 17.2385H44.9438C46.2814 17.2385 47.5651 17.7693 48.5122 18.7142C49.4571 19.6613 49.99 20.945 49.99 22.2826V23.8986C49.99 26.9103 48.8617 29.7994 46.8596 31.9263C44.8963 34.019 42.247 35.2142 39.4747 35.2768C40.6656 33.3675 41.4941 31.2488 41.9127 29.0352C43.7745 27.9198 45.0366 25.6286 45.0366 23.2531V23.251C45.0366 22.7785 44.6547 22.3966 44.1822 22.3966H42.2319L42.2319 17.2385ZM40.5081 18.0994V14.6518C40.5081 14.1771 40.1219 13.7909 39.6473 13.7909H1.72385C1.24706 13.7909 0.860876 14.1771 0.860876 14.6518V18.0994H40.5081ZM28.4413 11.9483C28.6183 11.5967 28.7499 11.1911 28.8167 10.7725C28.9742 9.81032 28.8275 8.63883 28.0336 7.48032C26.8621 5.7716 28.2882 3.97445 28.2882 3.97445C28.5794 3.5969 28.5082 3.05536 28.1328 2.76629C27.7553 2.47504 27.2137 2.54407 26.9247 2.91946C26.9247 2.91946 24.7629 5.76079 26.6118 8.45521C27.4769 9.71513 27.1814 11.0032 26.724 11.4454C26.381 11.7777 26.3723 12.3235 26.7046 12.6644C27.0347 13.0074 27.5805 13.016 27.9235 12.6859C28.1026 12.509 28.286 12.259 28.4413 11.9483ZM20.2777 0.335046C20.2777 0.335046 17.5788 3.87322 19.8808 7.22614C21.0997 9.0039 20.638 10.8226 19.993 11.4461C19.6499 11.7783 19.6413 12.3241 19.9735 12.665C20.3036 13.008 20.8494 13.0167 21.1903 12.6866C22.1763 11.733 23.1601 8.95854 21.3025 6.25335C19.678 3.88231 21.6412 1.39048 21.6412 1.39048C21.9325 1.01293 21.8634 0.47139 21.4859 0.18016C21.1083 -0.111093 20.569 -0.0425035 20.2777 0.335046ZM13.1259 2.89807C13.1259 2.89807 14.4636 4.57873 13.3654 6.17737C11.9221 8.28088 12.7117 10.4383 13.4776 11.1783C13.8185 11.5084 14.3643 11.4998 14.6965 11.1567C15.0266 10.8159 15.018 10.27 14.6771 9.93781C14.25 9.52574 13.9824 8.32619 14.7872 7.15254C16.5606 4.56793 14.4894 1.84308 14.4894 1.84308C14.1982 1.46768 13.6567 1.39649 13.2813 1.68774C12.9037 1.97899 12.8347 2.52051 13.1259 2.89807Z" fill="#402913"/>
</svg>
