<svg width="50" height="50" viewBox="0 0 50 50" fill="none" xmlns="http://www.w3.org/2000/svg">
<path d="M28.5021 3.71087C29.8117 3.71087 31.0343 4.05754 31.9474 4.68741C32.4396 5.03376 32.9317 5.39605 33.4239 5.7743C32.9332 7.27566 32.8689 8.88378 33.2382 10.4195C33.6075 11.9553 34.396 13.3583 35.5157 14.4724L35.5235 14.4792C36.6379 15.5983 38.041 16.3864 39.5765 16.7559C41.1121 17.1253 42.72 17.0617 44.2216 16.5719C44.6005 17.0602 44.9608 17.5553 45.3075 18.0475C45.9637 18.9987 46.3094 20.2721 46.284 21.6363C46.2586 23.0005 45.8455 24.3159 45.1532 25.2671L45.1366 25.2905C43.8593 27.0737 38.8115 32.7806 35.792 35.7395L35.7413 35.7903C32.7784 38.8108 27.0715 43.8585 25.2922 45.1349L25.2688 45.1515C24.2766 45.8741 22.9007 46.2882 21.4906 46.2882C20.182 46.2882 18.9594 45.9415 18.0453 45.3116C17.557 44.9649 17.0619 44.6046 16.5688 44.2257C17.0594 42.7244 17.1237 41.1164 16.7546 39.5807C16.3855 38.045 15.5973 36.6419 14.478 35.5276L14.4702 35.5198C13.3558 34.4003 11.9526 33.612 10.4167 33.2427C8.88087 32.8734 7.27267 32.9376 5.77113 33.4281C5.39354 32.9352 5.03157 32.4431 4.68522 31.9515C4.02996 31.0004 3.68328 29.727 3.70867 28.3637C3.73406 27.0005 4.14812 25.6831 4.83951 24.7329L4.85709 24.7085C6.13343 22.9253 11.1822 17.2184 14.2016 14.2595L14.2514 14.2097C17.2143 11.1902 22.9202 6.14148 24.7005 4.86514L24.7249 4.84756C25.717 4.12297 27.093 3.71087 28.5021 3.71087ZM28.5021 0C26.3645 0 24.22 0.622058 22.5452 1.84274C20.5667 3.2597 14.7221 8.42757 11.6079 11.6082C8.42929 14.7253 3.26142 20.5699 1.8425 22.5455C-0.515853 25.7856 -0.641827 30.7758 1.64719 34.0687C2.66319 35.5099 3.7508 36.8993 4.90592 38.2317C5.36031 37.755 5.90644 37.3752 6.51144 37.1151C7.11644 36.8549 7.76781 36.7199 8.42636 36.718C9.06314 36.7192 9.69342 36.8462 10.281 37.0917C10.8685 37.3373 11.4018 37.6964 11.8501 38.1487C13.7749 40.0793 13.7671 43.1505 11.7642 45.0919C13.3589 46.4698 14.7446 47.5274 15.9223 48.3565C17.5131 49.459 19.4984 50 21.4886 50C23.6253 50 25.7698 49.3779 27.4455 48.1573C29.425 46.7413 35.2686 41.5724 38.3828 38.3918C41.5605 35.2737 46.7293 29.4301 48.1482 27.4545C50.5066 24.2153 50.6326 19.2252 48.3435 15.9313C47.5145 14.7536 46.4569 13.3679 45.079 11.7732C44.6247 12.2476 44.0796 12.6255 43.4761 12.8846C42.8726 13.1436 42.2231 13.2785 41.5663 13.281C40.9298 13.28 40.2997 13.1531 39.7123 12.9078C39.1249 12.6624 38.5917 12.3034 38.1435 11.8513C36.2188 9.91973 36.2266 6.84948 38.2295 4.90713C36.8987 3.75021 35.5106 2.66096 34.0704 1.64352C32.4806 0.541005 30.4953 0 28.5031 0H28.5021Z" fill="#402913"/>
<path d="M26.9681 35.8579C26.5455 35.8575 26.1357 35.7129 25.8064 35.4479C25.4772 35.183 25.2483 34.8136 25.1576 34.4009L20.9584 15.2938C20.906 15.0558 20.901 14.8098 20.9437 14.5699C20.9864 14.3299 21.0759 14.1007 21.2072 13.8954C21.4723 13.4807 21.8913 13.1883 22.372 13.0825C22.8527 12.9767 23.3557 13.0661 23.7704 13.3312C24.1851 13.5963 24.4775 14.0153 24.5833 14.496L28.7825 33.604C28.888 34.0844 28.7984 34.5871 28.5334 35.0015C28.2684 35.4159 27.8498 35.7081 27.3694 35.8139C27.2377 35.8434 27.1031 35.8581 26.9681 35.8579Z" fill="#402913"/>
<path d="M16.1634 31.0076C15.3298 31.0082 14.509 30.8032 13.7736 30.4106C13.0383 30.018 12.4111 29.4501 11.9478 28.7571C11.4845 28.0641 11.1994 27.2675 11.1177 26.438C11.0359 25.6084 11.1602 24.7715 11.4794 24.0014C11.7985 23.2314 12.3028 22.552 12.9474 22.0235C13.592 21.495 14.3571 21.1337 15.1748 20.9716C15.9925 20.8096 16.8375 20.8518 17.6349 21.0946C18.4324 21.3373 19.1576 21.7731 19.7463 22.3633C20.4546 23.072 20.9369 23.9748 21.1322 24.9575C21.3275 25.9403 21.2271 26.9588 20.8436 27.8845C20.4601 28.8102 19.8108 29.6014 18.9778 30.1582C18.1448 30.7149 17.1654 31.0122 16.1634 31.0125V31.0076ZM16.1634 24.5859C15.8504 24.5863 15.5471 24.6952 15.3054 24.8941C15.0636 25.093 14.8983 25.3695 14.8375 25.6766C14.7768 25.9837 14.8243 26.3024 14.9721 26.5784C15.1199 26.8543 15.3588 27.0705 15.6481 27.1902C15.9374 27.3098 16.2593 27.3254 16.5588 27.2344C16.8583 27.1434 17.117 26.9513 17.2909 26.691C17.4647 26.4306 17.5429 26.1181 17.5122 25.8065C17.4815 25.495 17.3437 25.2037 17.1224 24.9823C16.9965 24.8564 16.847 24.7565 16.6824 24.6885C16.5179 24.6204 16.3415 24.5856 16.1634 24.5859Z" fill="#402913"/>
<path d="M33.8299 29.1229C32.9968 29.1228 32.1765 28.9174 31.4418 28.5246C30.707 28.1319 30.0805 27.5641 29.6176 26.8713C29.1547 26.1786 28.8698 25.3825 28.7881 24.5534C28.7064 23.7243 28.8304 22.8878 29.1492 22.1181C29.468 21.3483 29.9716 20.6691 30.6156 20.1405C31.2596 19.6119 32.024 19.2503 32.8411 19.0877C33.6582 18.9251 34.5028 18.9665 35.3 19.2082C36.0973 19.4499 36.8227 19.8846 37.4119 20.4736C38.1206 21.1821 38.6032 22.0848 38.7988 23.0676C38.9944 24.0504 38.8942 25.0692 38.5108 25.995C38.1273 26.9209 37.478 27.7122 36.6448 28.2689C35.8116 28.8257 34.832 29.1229 33.8299 29.1229ZM33.8299 22.7011C33.5163 22.7011 33.2124 22.8099 32.97 23.0089C32.7276 23.2079 32.5617 23.4847 32.5005 23.7923C32.4394 24.0999 32.4868 24.4192 32.6348 24.6958C32.7827 24.9723 33.0219 25.189 33.3117 25.309C33.6014 25.4289 33.9238 25.4446 34.2239 25.3535C34.524 25.2623 34.7832 25.0699 34.9573 24.8091C35.1314 24.5483 35.2097 24.2351 35.1788 23.923C35.148 23.6109 35.0098 23.3192 34.7879 23.0976C34.6623 22.9715 34.513 22.8715 34.3486 22.8034C34.1842 22.7354 34.0079 22.7006 33.8299 22.7011Z" fill="#402913"/>
</svg>
