<svg width="49" height="50" viewBox="0 0 49 50" fill="none" xmlns="http://www.w3.org/2000/svg">
<path d="M30.8905 25.9521C29.8488 25.9521 29.396 27.1305 29.396 28.6028C29.3732 30.1428 29.8943 31.2534 30.8905 31.2534C31.866 31.2534 32.3405 30.2561 32.3405 28.6028C32.3405 27.1077 31.956 25.9521 30.8905 25.9521Z" fill="#402913"/>
<path d="M17.9986 18.7012C16.9792 18.7012 16.5042 19.879 16.5042 21.3518C16.5042 22.8924 17.0253 24.0024 18.0214 24.0024C18.9953 24.0024 19.472 23.0063 19.472 21.3518C19.472 19.8568 19.0631 18.7012 17.9986 18.7012Z" fill="#402913"/>
<path d="M46.9987 27.0596C46.1086 25.9268 46.1086 24.0734 46.9987 22.9406L48.3442 21.23C49.2348 20.0972 48.9043 18.6516 47.6109 18.0177L45.6564 17.0593C44.363 16.4254 43.5591 14.7554 43.8691 13.3481L44.3391 11.2242C44.6503 9.81691 43.7258 8.65799 42.2852 8.64799L40.1085 8.63299C38.6684 8.62244 37.219 7.46685 36.889 6.0646L36.3906 3.94677C36.06 2.54451 34.7239 1.9006 33.4211 2.51729L31.4549 3.44786C30.1516 4.06344 28.3449 3.6512 27.4387 2.53117L26.0704 0.840021C25.1637 -0.280007 23.6814 -0.280007 22.7747 0.840021L21.4063 2.53117C20.4997 3.6512 18.6924 4.06399 17.3901 3.44786L15.4234 2.51729C14.1212 1.90116 12.7845 2.54451 12.4545 3.94677L11.9561 6.0646C11.6256 7.46685 10.1761 8.62244 8.73548 8.63299L6.55987 8.64799C5.11872 8.65799 4.19425 9.81691 4.50537 11.2242L4.97538 13.3481C5.28595 14.7554 4.48148 16.4254 3.18812 17.0593L1.23418 18.0177C-0.0597412 18.6516 -0.390305 20.0977 0.500828 21.23L1.84531 22.9406C2.73588 24.0734 2.73588 25.9268 1.84531 27.0596L0.500828 28.7702C-0.390305 29.903 -0.0597412 31.3486 1.23418 31.9825L3.18812 32.9408C4.48148 33.5747 5.28539 35.2442 4.97538 36.652L4.50537 38.776C4.19425 40.1832 5.11872 41.3421 6.55987 41.3527L8.73548 41.3671C10.1761 41.3777 11.6256 42.5333 11.9561 43.9355L12.4545 46.0534C12.7845 47.4556 14.1212 48.1001 15.4234 47.4829L17.3901 46.5523C18.6924 45.9373 20.4997 46.3489 21.4063 47.469L22.7747 49.1596C23.6814 50.2801 25.1637 50.2801 26.0704 49.1596L27.4387 47.469C28.3449 46.3484 30.1527 45.9356 31.4549 46.5523L33.4211 47.4829C34.7239 48.099 36.06 47.4556 36.3906 46.0534L36.889 43.9355C37.219 42.5333 38.6684 41.3777 40.1085 41.3671L42.2852 41.3527C43.7263 41.3421 44.6503 40.1838 44.3391 38.776L43.8691 36.652C43.5575 35.2448 44.363 33.5747 45.6564 32.9408L47.6109 31.9825C48.9043 31.348 49.2348 29.9024 48.3442 28.7702L46.9987 27.0596ZM13.9434 21.4428C13.9434 18.8149 15.5523 16.821 18.0668 16.821C20.6041 16.821 22.0314 18.6782 22.0314 21.1939C22.0314 24.2751 20.0835 25.8834 17.9535 25.8834C15.7095 25.8834 13.9434 24.2073 13.9434 21.4428ZM21.6691 33.1797H18.7013L27.1515 16.821H30.1421L21.6691 33.1797ZM30.8227 33.1342C28.6015 33.1342 26.8348 31.4575 26.8132 28.6941C26.8132 26.0662 28.421 24.0723 30.9355 24.0723C33.4733 24.0723 34.9006 25.9301 34.9006 28.4452C34.9006 31.5258 32.9522 33.1342 30.8227 33.1342Z" fill="#402913"/>
</svg>
