<svg width="40" height="41" viewBox="0 0 40 41" fill="none" xmlns="http://www.w3.org/2000/svg">
<path d="M25.2972 21.252C24.4441 21.252 24.0733 22.2169 24.0733 23.4226C24.0547 24.6838 24.4814 25.5933 25.2972 25.5933C26.0961 25.5933 26.4847 24.7766 26.4847 23.4226C26.4847 22.1983 26.1698 21.252 25.2972 21.252Z" fill="#FF5819"/>
<path d="M14.7395 15.3145C13.9046 15.3145 13.5156 16.279 13.5156 17.4851C13.5156 18.7467 13.9424 19.6558 14.7581 19.6558C15.5557 19.6558 15.9461 18.84 15.9461 17.4851C15.9461 16.2608 15.6112 15.3145 14.7395 15.3145Z" fill="#FF5819"/>
<path d="M38.4882 22.1597C37.7594 21.232 37.7594 19.7142 38.4882 18.7865L39.5902 17.3857C40.3195 16.458 40.0488 15.2742 38.9896 14.7551L37.389 13.9703C36.3299 13.4511 35.6715 12.0835 35.9254 10.9311L36.3103 9.19172C36.5651 8.03929 35.808 7.09022 34.6283 7.08204L32.8457 7.06975C31.6665 7.06111 30.4794 6.11477 30.2092 4.96643L29.8011 3.23209C29.5304 2.08375 28.4362 1.55645 27.3693 2.06146L25.7591 2.82353C24.6918 3.32764 23.2122 2.99005 22.4702 2.07284L21.3496 0.687912C20.6071 -0.229304 19.3932 -0.229304 18.6507 0.687912L17.5301 2.07284C16.7876 2.99005 15.3076 3.32809 14.2412 2.82353L12.6306 2.06146C11.5641 1.5569 10.4695 2.08375 10.1992 3.23209L9.79113 4.96643C9.52042 6.11477 8.33341 7.06111 7.15368 7.06975L5.37202 7.08204C4.19184 7.09022 3.43477 8.03929 3.68955 9.19172L4.07445 10.9311C4.32878 12.0835 3.66999 13.4511 2.61082 13.9703L1.0107 14.7551C-0.0489234 15.2742 -0.319629 16.4585 0.41014 17.3857L1.51116 18.7865C2.24048 19.7142 2.24048 21.232 1.51116 22.1597L0.41014 23.5605C-0.319629 24.4882 -0.0489234 25.672 1.0107 26.1912L2.61082 26.976C3.66999 27.4951 4.32833 28.8623 4.07445 30.0152L3.68955 31.7545C3.43477 32.9069 4.19184 33.856 5.37202 33.8647L7.15368 33.8765C8.33341 33.8851 9.52042 34.8315 9.79113 35.9798L10.1992 37.7141C10.4695 38.8625 11.5641 39.3902 12.6306 38.8848L14.2412 38.1227C15.3076 37.619 16.7876 37.9562 17.5301 38.8734L18.6507 40.2579C19.3932 41.1755 20.6071 41.1755 21.3496 40.2579L22.4702 38.8734C23.2122 37.9557 24.6927 37.6177 25.7591 38.1227L27.3693 38.8848C28.4362 39.3893 29.5304 38.8625 29.8011 37.7141L30.2092 35.9798C30.4794 34.8315 31.6665 33.8851 32.8457 33.8765L34.6283 33.8647C35.8085 33.856 36.5651 32.9074 36.3103 31.7545L35.9254 30.0152C35.6702 28.8627 36.3299 27.4951 37.389 26.976L38.9896 26.1912C40.0488 25.6716 40.3195 24.4878 39.5902 23.5605L38.4882 22.1597ZM11.4186 17.56C11.4186 15.408 12.7361 13.7751 14.7953 13.7751C16.8732 13.7751 18.042 15.296 18.042 17.3561C18.042 19.8794 16.4469 21.1965 14.7025 21.1965C12.8649 21.1965 11.4186 19.8239 11.4186 17.56ZM17.7453 27.1716H15.3149L22.235 13.7751H24.6841L17.7453 27.1716ZM25.2414 27.1343C23.4224 27.1343 21.9756 25.7612 21.9579 23.4982C21.9579 21.3462 23.2746 19.7133 25.3338 19.7133C27.412 19.7133 28.5809 21.2347 28.5809 23.2944C28.5809 25.8172 26.9853 27.1343 25.2414 27.1343Z" fill="#FF5819"/>
</svg>
