<svg width="40" height="40" viewBox="0 0 40 40" fill="none" xmlns="http://www.w3.org/2000/svg">
<path d="M22.8059 2.96924C23.8538 2.96924 24.8321 3.24663 25.5626 3.75062C25.9565 4.02775 26.3503 4.31764 26.7441 4.6203C26.3514 5.8216 26.3 7.10834 26.5955 8.33716C26.891 9.56597 27.5219 10.6886 28.4178 11.58L28.4241 11.5855C29.3158 12.481 30.4384 13.1116 31.6671 13.4072C32.8958 13.7028 34.1823 13.6519 35.3838 13.26C35.687 13.6507 35.9753 14.0469 36.2527 14.4407C36.7778 15.2017 37.0544 16.2207 37.0341 17.3122C37.0138 18.4038 36.6832 19.4564 36.1292 20.2174L36.116 20.2362C35.0939 21.663 31.055 26.2294 28.6389 28.5969L28.5983 28.6376C26.2276 31.0544 21.6612 35.0933 20.2375 36.1146L20.2188 36.1279C19.4249 36.7061 18.3239 37.0374 17.1956 37.0374C16.1486 37.0374 15.1703 36.76 14.4389 36.256C14.0482 35.9786 13.6521 35.6903 13.2575 35.3871C13.6501 34.1859 13.7015 32.8992 13.4062 31.6704C13.1108 30.4417 12.4802 29.319 11.5845 28.4274L11.5783 28.4211C10.6866 27.5254 9.56381 26.8946 8.33491 26.5991C7.10601 26.3036 5.81922 26.3549 4.61776 26.7474C4.31563 26.3531 4.026 25.9593 3.74887 25.566C3.22456 24.8049 2.94717 23.786 2.96749 22.6952C2.9878 21.6044 3.31911 20.5503 3.87233 19.79L3.88639 19.7705C4.90765 18.3437 8.94739 13.7773 11.3634 11.4097L11.4033 11.3699C13.774 8.95383 18.3396 4.9141 19.764 3.89283L19.7836 3.87877C20.5774 3.29898 21.6784 2.96924 22.8059 2.96924ZM22.8059 0C21.0955 0 19.3796 0.497739 18.0395 1.47446C16.4564 2.60825 11.7799 6.74331 9.28807 9.28826C6.74468 11.7824 2.60962 16.459 1.47427 18.0397C-0.412759 20.6323 -0.513557 24.6252 1.318 27.26C2.13095 28.4132 3.00119 29.5249 3.92546 30.591C4.28905 30.2096 4.72603 29.9057 5.21012 29.6976C5.69421 29.4894 6.2154 29.3814 6.74233 29.3799C7.25186 29.3808 7.75617 29.4825 8.22631 29.6789C8.69644 29.8753 9.12312 30.1627 9.48185 30.5246C11.0219 32.0694 11.0157 34.5268 9.41309 36.0802C10.6891 37.1827 11.7979 38.029 12.7402 38.6924C14.0131 39.5745 15.6016 40.0074 17.1941 40.0074C18.9037 40.0074 20.6196 39.5097 21.9605 38.533C23.5443 37.4 28.2201 33.2641 30.7119 30.7192C33.2545 28.2242 37.3904 23.5484 38.5257 21.9677C40.4128 19.3759 40.5136 15.383 38.682 12.7474C38.0186 11.8051 37.1724 10.6963 36.0699 9.42031C35.7064 9.79986 35.2702 10.1023 34.7873 10.3096C34.3044 10.5169 33.7847 10.6247 33.2592 10.6268C32.7499 10.6259 32.2457 10.5244 31.7757 10.3281C31.3057 10.1318 30.8791 9.84454 30.5205 9.48282C28.9804 7.93725 28.9866 5.4806 30.5893 3.92643C29.5244 3.00072 28.4137 2.12916 27.2614 1.31506C25.9893 0.432884 24.4007 0 22.8067 0H22.8059Z" fill="#FF5819"/>
<path d="M21.5787 28.692C21.2405 28.6917 20.9126 28.576 20.6492 28.364C20.3858 28.152 20.2026 27.8565 20.13 27.5262L16.7701 12.2377C16.7281 12.0473 16.7242 11.8505 16.7583 11.6585C16.7925 11.4665 16.8641 11.2831 16.9691 11.1188C17.1812 10.7869 17.5165 10.553 17.9011 10.4683C18.2857 10.3837 18.6882 10.4553 19.0201 10.6674C19.3519 10.8795 19.5859 11.2147 19.6705 11.5994L23.0305 26.8886C23.1149 27.273 23.0432 27.6752 22.8312 28.0068C22.6192 28.3384 22.2842 28.5722 21.8998 28.6569C21.7944 28.6805 21.6867 28.6922 21.5787 28.692Z" fill="#FF5819"/>
<path d="M12.9333 24.8107C12.2663 24.8112 11.6095 24.6471 11.0211 24.333C10.4328 24.0189 9.93096 23.5645 9.56025 23.01C9.18954 22.4555 8.96138 21.8181 8.89599 21.1543C8.83061 20.4906 8.93001 19.8209 9.1854 19.2047C9.44079 18.5886 9.84426 18.045 10.3601 17.6221C10.8758 17.1992 11.488 16.9101 12.1423 16.7804C12.7966 16.6508 13.4727 16.6846 14.1108 16.8788C14.7489 17.0731 15.3292 17.4217 15.8002 17.8939C16.3669 18.461 16.7528 19.1834 16.9091 19.9697C17.0654 20.7561 16.985 21.5711 16.6782 22.3118C16.3713 23.0525 15.8518 23.6856 15.1853 24.131C14.5187 24.5765 13.7351 24.8144 12.9333 24.8146V24.8107ZM12.9333 19.6724C12.6828 19.6727 12.4402 19.7599 12.2468 19.919C12.0533 20.0782 11.921 20.2994 11.8724 20.5452C11.8238 20.7909 11.8619 21.0459 11.9801 21.2667C12.0984 21.4875 12.2895 21.6605 12.521 21.7562C12.7525 21.8519 13.01 21.8644 13.2497 21.7916C13.4894 21.7187 13.6964 21.5651 13.8355 21.3568C13.9746 21.1484 14.0372 20.8984 14.0126 20.6491C13.988 20.3998 13.8778 20.1667 13.7007 19.9896C13.5999 19.8888 13.4803 19.8089 13.3486 19.7545C13.217 19.7 13.0758 19.6721 12.9333 19.6724Z" fill="#FF5819"/>
<path d="M27.0689 23.3029C26.4023 23.3029 25.7459 23.1385 25.158 22.8243C24.5701 22.51 24.0688 22.0556 23.6984 21.5014C23.328 20.9471 23.1 20.3101 23.0347 19.6466C22.9693 18.9832 23.0685 18.3139 23.3236 17.698C23.5787 17.0821 23.9817 16.5387 24.497 16.1157C25.0122 15.6928 25.6239 15.4034 26.2777 15.2733C26.9315 15.1432 27.6073 15.1763 28.2452 15.3697C28.8831 15.5632 29.4635 15.9109 29.935 16.3822C30.502 16.9491 30.8882 17.6714 31.0448 18.4578C31.2013 19.2442 31.1211 20.0594 30.8143 20.8002C30.5075 21.541 29.9879 22.1742 29.3212 22.6197C28.6545 23.0651 27.8707 23.3029 27.0689 23.3029ZM27.0689 18.1646C26.8179 18.1646 26.5748 18.2516 26.3808 18.4108C26.1869 18.57 26.0541 18.7916 26.0052 19.0377C25.9563 19.2838 25.9942 19.5393 26.1126 19.7606C26.2309 19.9819 26.4223 20.1553 26.6542 20.2512C26.8861 20.3472 27.144 20.3598 27.3841 20.2869C27.6243 20.2139 27.8316 20.06 27.971 19.8513C28.1103 19.6426 28.1729 19.392 28.1482 19.1423C28.1235 18.8926 28.013 18.6591 27.8354 18.4818C27.735 18.3809 27.6155 18.3009 27.4839 18.2464C27.3523 18.192 27.2113 18.1642 27.0689 18.1646Z" fill="#FF5819"/>
</svg>
