<svg width="50" height="50" viewBox="0 0 50 50" fill="none" xmlns="http://www.w3.org/2000/svg">
<path d="M24.1924 29.043H22.5752V30.6594H24.1924V29.043Z" fill="#402913"/>
<path d="M33.8925 37.125H32.2769V38.7422H33.8925V37.125Z" fill="#402913"/>
<path d="M24.1924 17.7246H22.5752V19.3418H24.1924V17.7246Z" fill="#402913"/>
<path d="M38.7442 24.1914H37.1262V25.8086H38.7442V24.1914Z" fill="#402913"/>
<path d="M11.257 24.1914H9.64062V25.8086H11.257V24.1914Z" fill="#402913"/>
<path d="M17.725 32.2754H9.64062V40.359H17.725V32.2754ZM16.1078 38.7426H11.257V33.8918H16.1078V38.7426Z" fill="#402913"/>
<path d="M25.8086 22.5742H24.1914V25.8086H25.8086V22.5742Z" fill="#402913"/>
<path d="M9.64062 17.725H17.725V9.64062H9.64062V17.725ZM11.257 11.257H16.1078V16.1078H11.257V11.257Z" fill="#402913"/>
<path d="M37.1252 38.7441H35.5088V40.3598H37.1252V38.7441Z" fill="#402913"/>
<path d="M25 0C11.1922 0 0 11.193 0 25C0 38.8078 11.1922 50 25 50C38.807 50 50 38.8078 50 25C50 11.193 38.807 0 25 0ZM20.9586 8.02344H22.575V11.257H24.1922V9.64062H29.0422V12.875H27.4258V11.2578L24.1922 11.257V12.875H20.9586V8.02344ZM29.0422 14.4906V19.3414H27.4258V14.4906H29.0422ZM8.02344 8.02344H19.3414V19.3414H8.02344V8.02344ZM19.3414 41.9766H8.02344V30.6586H19.3414V41.9766ZM30.6594 41.9766H22.575V38.743H20.9586V33.8914H22.575V30.6578H20.9586V29.0414H17.7242V27.4242H14.4906V29.0422H12.8742V27.4242H14.4906V25.8086H17.7242V24.1914H14.4906V22.575H11.2563V24.1914H14.4906V25.8086H11.2563V27.4242H9.63984V25.8086H8.02344V22.5742H11.257V20.9578H16.1078V22.5742H17.7242V20.9578H19.3414V22.5742H17.7242V24.1914L19.3414 24.1906V25.8078L17.7242 25.8086V27.4242L22.575 27.4234V24.1898H20.9586V16.107H24.1922V17.7234H25.8094V22.5742H27.4258V29.0414H25.8094V30.6578H24.1922V33.8914H25.8094V32.2758H29.043V30.6586H33.8937V32.2758H30.6602V33.8914H25.8094V35.5086H22.575V38.743H24.1922V37.1258H25.8094V38.743H24.1922V40.3586H30.6602L30.6594 41.9766ZM40.3602 41.9766H33.893V40.3586H30.6602L30.6594 37.1258H27.425V35.5094H30.6594V37.1258L32.2766 37.125V33.8914H33.8922V37.125H37.1258V33.8914H35.5094V32.2758H37.1258V33.8914H38.7437V40.3586H40.3594L40.3602 41.9766ZM41.9766 24.1914H40.3602V29.0422H41.9766V30.6586H40.3602V32.2758H41.9766V33.8914H40.3602V32.2758H38.7445V29.0414H37.1266V30.6578H35.5102V29.0414H33.8937V27.4242H32.2781V29.0414H30.6609V27.4242H29.0437V24.1906H30.6609V22.5742H29.0437V20.9578H33.8945V24.1914H37.1281V20.9578H41.9789V24.1914H41.9766ZM41.9766 19.3414H30.6594V8.02344H41.9766V19.3414Z" fill="#402913"/>
<path d="M33.8927 24.1914H32.2771V25.8086H33.8927V24.1914Z" fill="#402913"/>
<path d="M37.1252 25.8086H35.5088V29.0422H37.1252V25.8086Z" fill="#402913"/>
<path d="M40.3604 9.64062H32.2769V17.725H40.3604V9.64062ZM38.7433 16.1078H33.8933V11.257H38.7433V16.1078Z" fill="#402913"/>
</svg>
