<svg width="40" height="40" viewBox="0 0 40 40" fill="none" xmlns="http://www.w3.org/2000/svg">
<path d="M19.3538 23.2344H18.0601V24.5275H19.3538V23.2344Z" fill="#FF5819"/>
<path d="M27.1138 29.6992H25.8213V30.993H27.1138V29.6992Z" fill="#FF5819"/>
<path d="M19.3538 14.1797H18.0601V15.4734H19.3538V14.1797Z" fill="#FF5819"/>
<path d="M30.9951 19.3535H29.7007V20.6473H30.9951V19.3535Z" fill="#FF5819"/>
<path d="M9.00553 19.3535H7.7124V20.6473H9.00553V19.3535Z" fill="#FF5819"/>
<path d="M14.1799 25.8203H7.7124V32.2872H14.1799V25.8203ZM12.8862 30.9941H9.00553V27.1134H12.8862V30.9941Z" fill="#FF5819"/>
<path d="M20.6468 18.0586H19.353V20.6461H20.6468V18.0586Z" fill="#FF5819"/>
<path d="M7.7124 14.1804H14.1799V7.71289H7.7124V14.1804ZM9.00553 9.00602H12.8862V12.8866H9.00553V9.00602Z" fill="#FF5819"/>
<path d="M29.7004 30.9961H28.4072V32.2886H29.7004V30.9961Z" fill="#FF5819"/>
<path d="M20 0C8.95375 0 0 8.95437 0 20C0 31.0462 8.95375 40 20 40C31.0456 40 40 31.0462 40 20C40 8.95437 31.0456 0 20 0ZM16.7669 6.41875H18.06V9.00562H19.3538V7.7125H23.2337V10.3H21.9406V9.00625L19.3538 9.00562V10.3H16.7669V6.41875ZM23.2337 11.5925V15.4731H21.9406V11.5925H23.2337ZM6.41875 6.41875H15.4731V15.4731H6.41875V6.41875ZM15.4731 33.5812H6.41875V24.5269H15.4731V33.5812ZM24.5275 33.5812H18.06V30.9944H16.7669V27.1131H18.06V24.5263H16.7669V23.2331H14.1794V21.9394H11.5925V23.2337H10.2994V21.9394H11.5925V20.6469H14.1794V19.3531H11.5925V18.06H9.005V19.3531H11.5925V20.6469H9.005V21.9394H7.71187V20.6469H6.41875V18.0594H9.00562V16.7663H12.8862V18.0594H14.1794V16.7663H15.4731V18.0594H14.1794V19.3531L15.4731 19.3525V20.6462L14.1794 20.6469V21.9394L18.06 21.9388V19.3519H16.7669V12.8856H19.3538V14.1788H20.6475V18.0594H21.9406V23.2331H20.6475V24.5263H19.3538V27.1131H20.6475V25.8206H23.2344V24.5269H27.115V25.8206H24.5281V27.1131H20.6475V28.4069H18.06V30.9944H19.3538V29.7006H20.6475V30.9944H19.3538V32.2869H24.5281L24.5275 33.5812ZM32.2881 33.5812H27.1144V32.2869H24.5281L24.5275 29.7006H21.94V28.4075H24.5275V29.7006L25.8212 29.7V27.1131H27.1138V29.7H29.7006V27.1131H28.4075V25.8206H29.7006V27.1131H30.995V32.2869H32.2875L32.2881 33.5812ZM33.5812 19.3531H32.2881V23.2337H33.5812V24.5269H32.2881V25.8206H33.5812V27.1131H32.2881V25.8206H30.9956V23.2331H29.7013V24.5263H28.4081V23.2331H27.115V21.9394H25.8225V23.2331H24.5287V21.9394H23.235V19.3525H24.5287V18.0594H23.235V16.7663H27.1156V19.3531H29.7025V16.7663H33.5831V19.3531H33.5812ZM33.5812 15.4731H24.5275V6.41875H33.5812V15.4731Z" fill="#FF5819"/>
<path d="M27.1138 19.3535H25.8213V20.6473H27.1138V19.3535Z" fill="#FF5819"/>
<path d="M29.7004 20.6465H28.4072V23.2334H29.7004V20.6465Z" fill="#FF5819"/>
<path d="M32.2882 7.71289H25.8213V14.1804H32.2882V7.71289ZM30.9944 12.8866H27.1144V9.00602H30.9944V12.8866Z" fill="#FF5819"/>
</svg>
