<svg width="40" height="40" viewBox="0 0 40 40" fill="none" xmlns="http://www.w3.org/2000/svg">
<path d="M18.8217 21.1783C18.4963 21.5037 17.9687 21.5038 17.6433 21.1784L15.875 19.4108L14.6968 20.5891L18.2324 24.1248L25.3031 17.0533L24.1249 15.875L18.8217 21.1783Z" fill="#FF5819"/>
<path d="M19.9997 10.832C14.9452 10.832 10.833 14.9442 10.833 19.9987C10.833 25.0532 14.9452 29.1654 19.9997 29.1654C25.0542 29.1654 29.1663 25.0532 29.1663 19.9987C29.1663 14.9442 25.0542 10.832 19.9997 10.832ZM27.0707 17.6412L18.8214 25.8913C18.496 26.2167 17.9684 26.2167 17.6429 25.8913L12.9288 21.1772C12.6033 20.8518 12.6033 20.3241 12.9287 19.9986L15.2853 17.6419C15.6108 17.3166 16.1383 17.3165 16.4638 17.6419L18.232 19.4095L23.5353 14.1061C23.8608 13.7808 24.3884 13.7808 24.7138 14.1061L27.0705 16.4627C27.396 16.7882 27.396 17.3158 27.0707 17.6412Z" fill="#FF5819"/>
<path d="M20 5C11.729 5 5 11.729 5 20C5 28.271 11.729 35 20 35C28.271 35 35 28.271 35 20C35 11.729 28.271 5 20 5ZM20 30.8333C14.0265 30.8333 9.16667 25.9736 9.16667 20C9.16667 14.0264 14.0265 9.16667 20 9.16667C25.9735 9.16667 30.8333 14.0264 30.8333 20C30.8333 25.9736 25.9735 30.8333 20 30.8333Z" fill="#FF5819"/>
<path d="M37.9368 15.1943C37.7884 14.6382 37.8089 13.9623 37.8306 13.2468C37.8642 12.1388 37.8988 10.9931 37.3231 9.99775C36.3625 8.3375 34.1416 7.88708 33.1277 6.87242C32.1144 5.85917 31.6618 3.637 30.0024 2.677C28.3492 1.7205 26.2347 2.4445 24.8062 2.06333C23.4537 1.7015 21.9499 0 20 0C18.0496 0 16.546 1.70167 15.1943 2.06317C14.6382 2.21158 13.9623 2.19108 13.2468 2.16942C12.1388 2.13592 10.993 2.10117 9.99758 2.67708C8.98733 3.2615 8.41883 4.32483 7.91725 5.26308C7.58358 5.88717 7.26842 6.47667 6.87233 6.87242C6.47683 7.26783 5.88775 7.58283 5.264 7.91642C4.32542 8.41825 3.26158 8.98725 2.67692 9.99775C2.10108 10.9931 2.13583 12.1388 2.16942 13.2468C2.19108 13.9623 2.21158 14.6382 2.06325 15.1938C1.924 15.7144 1.578 16.2701 1.21167 16.8584C0.64375 17.7706 0 18.8044 0 20C0 21.1956 0.64375 22.2294 1.21175 23.1416C1.57808 23.7299 1.92408 24.2856 2.06325 24.8058C2.21167 25.3618 2.19117 26.0377 2.1695 26.7532C2.13592 27.8612 2.10125 29.0069 2.677 30.0023C3.2615 31.0125 4.32492 31.5811 5.26317 32.0828C5.88717 32.4164 6.47667 32.7315 6.87242 33.1276C7.26783 33.523 7.58283 34.1122 7.91642 34.7359C8.41825 35.6746 8.98717 36.7383 9.99767 37.323C10.993 37.8988 12.1388 37.8639 13.2468 37.8306C13.9623 37.8088 14.6382 37.7883 15.1938 37.9367C15.7143 38.0759 16.27 38.4219 16.8583 38.7883C17.7706 39.3563 18.8044 40 20 40C21.9504 40 23.454 38.2983 24.8057 37.9368C26.2221 37.5588 28.3572 38.2749 30.0023 37.3229C31.6624 36.3625 32.1129 34.1413 33.1275 33.1276C34.1408 32.1144 36.3629 31.6616 37.3229 30.0023C37.8988 29.0069 37.864 27.8612 37.8304 26.7532C37.8088 26.0377 37.7883 25.3618 37.9366 24.8062C38.2991 23.4518 40 21.9502 40 20C40 18.8044 38.2984 16.5459 37.9368 15.1943ZM37.3734 22.2607C36.9588 22.9266 36.53 23.6152 36.3265 24.3759C36.115 25.1681 36.1403 25.9995 36.1646 26.8037C36.1923 27.7188 36.2185 28.5832 35.8803 29.1677C35.5335 29.767 34.7643 30.1784 33.9499 30.6139C33.2465 30.9901 32.5192 31.379 31.9492 31.9489C31.3783 32.5194 30.9892 33.2472 30.6128 33.9511C30.1777 34.765 29.7667 35.5337 29.1677 35.8802C28.5831 36.2185 27.7187 36.1926 26.8035 36.1646C25.9995 36.1403 25.168 36.115 24.3754 36.3266C23.6152 36.53 22.9265 36.9588 22.2606 37.3734C21.4678 37.8671 20.7191 38.3333 20 38.3333C19.2809 38.3333 18.5322 37.8671 17.7394 37.3734C16.3152 36.4867 15.65 36.1488 13.9838 36.1488C12.7938 36.1488 11.5823 36.3143 10.8323 35.8803C9.72358 35.2388 9.27433 33.1724 8.05117 31.9492C6.82608 30.7232 4.76133 30.2768 4.11967 29.1676C3.7815 28.583 3.80767 27.7187 3.83542 26.8036C3.85975 25.9995 3.885 25.168 3.67342 24.3754C3.47 23.6152 3.04125 22.9265 2.62658 22.2606C2.13292 21.4678 1.66667 20.7191 1.66667 20C1.66667 19.2809 2.13292 18.5322 2.62658 17.7393C3.04125 17.0734 3.47 16.3848 3.6735 15.6241C3.885 14.8319 3.85975 14.0005 3.83542 13.1963C3.80767 12.2813 3.7815 11.4168 4.11967 10.8323C4.4665 10.233 5.23567 9.82158 6.05008 9.38617C6.7535 9.01 7.48083 8.62108 8.05075 8.05108C9.27683 6.826 9.72308 4.76133 10.8323 4.11967C11.9203 3.49033 13.9309 4.12542 15.6246 3.67333C17.2768 3.23133 18.6795 1.66667 20 1.66667C21.3249 1.66667 22.7153 3.22917 24.3759 3.6735C26.0686 4.12517 28.0793 3.49017 29.1677 4.11967C30.2764 4.76117 30.7257 6.82758 31.9488 8.05075C32.5193 8.62167 33.2472 9.01083 33.951 9.38708C34.7649 9.82225 35.5338 10.2333 35.8803 10.8324C36.2185 11.417 36.1923 12.2813 36.1646 13.1964C36.1403 14.0006 36.115 14.832 36.3266 15.6246C36.7684 17.2759 38.3333 18.6795 38.3333 20C38.3333 20.7191 37.8671 21.4678 37.3734 22.2607Z" fill="#FF5819"/>
</svg>
