<svg width="50" height="50" viewBox="0 0 50 50" fill="none" xmlns="http://www.w3.org/2000/svg">
<path d="M23.5272 26.4729C23.1205 26.8796 22.461 26.8797 22.0542 26.473L19.8439 24.2634L18.3711 25.7364L22.7907 30.1559L31.629 21.3167L30.1563 19.8438L23.5272 26.4729Z" fill="#402913"/>
<path d="M24.9998 13.541C18.6817 13.541 13.5415 18.6812 13.5415 24.9993C13.5415 31.3175 18.6817 36.4577 24.9998 36.4577C31.318 36.4577 36.4582 31.3175 36.4582 24.9993C36.4582 18.6812 31.318 13.541 24.9998 13.541ZM33.8386 22.0525L23.527 32.3651C23.1203 32.7718 22.4608 32.7718 22.0539 32.3651L16.1612 26.4725C15.7544 26.0657 15.7544 25.4061 16.1611 24.9992L19.1069 22.0534C19.5137 21.6467 20.1732 21.6466 20.5799 22.0533L22.7903 24.2629L29.4194 17.6336C29.8262 17.227 30.4858 17.227 30.8925 17.6336L33.8384 20.5793C34.2453 20.9862 34.2453 21.6457 33.8386 22.0525Z" fill="#402913"/>
<path d="M25 6.25C14.6613 6.25 6.25 14.6613 6.25 25C6.25 35.3387 14.6613 43.75 25 43.75C35.3387 43.75 43.75 35.3387 43.75 25C43.75 14.6613 35.3387 6.25 25 6.25ZM25 38.5417C17.5331 38.5417 11.4583 32.467 11.4583 25C11.4583 17.533 17.5331 11.4583 25 11.4583C32.4669 11.4583 38.5417 17.533 38.5417 25C38.5417 32.467 32.4669 38.5417 25 38.5417Z" fill="#402913"/>
<path d="M47.421 18.9928C47.2355 18.2977 47.2611 17.4529 47.2882 16.5585C47.3302 15.1735 47.3735 13.7414 46.6539 12.4972C45.4531 10.4219 42.677 9.85885 41.4096 8.59052C40.143 7.32396 39.5772 4.54625 37.503 3.34625C35.4365 2.15062 32.7933 3.05562 31.0078 2.57917C29.3171 2.12687 27.4374 0 25 0C22.562 0 20.6825 2.12708 18.9928 2.57896C18.2977 2.76448 17.4529 2.73885 16.5585 2.71177C15.1734 2.6699 13.7412 2.62646 12.497 3.34635C11.2342 4.07687 10.5235 5.40604 9.89656 6.57885C9.47948 7.35896 9.08552 8.09583 8.59042 8.59052C8.09604 9.08479 7.35969 9.47854 6.58 9.89552C5.40677 10.5228 4.07698 11.2341 3.34615 12.4972C2.62635 13.7414 2.66979 15.1735 2.71177 16.5585C2.73885 17.4529 2.76448 18.2977 2.57906 18.9923C2.405 19.643 1.9725 20.3376 1.51458 21.073C0.804688 22.2132 0 23.5055 0 25C0 26.4945 0.804688 27.7868 1.51469 28.927C1.9726 29.6624 2.4051 30.357 2.57906 31.0072C2.76458 31.7023 2.73896 32.5471 2.71187 33.4415C2.6699 34.8265 2.62656 36.2586 3.34625 37.5028C4.07687 38.7656 5.40615 39.4764 6.57896 40.1034C7.35896 40.5205 8.09583 40.9144 8.59052 41.4095C9.08479 41.9038 9.47854 42.6402 9.89552 43.4199C10.5228 44.5932 11.234 45.9229 12.4971 46.6538C13.7413 47.3734 15.1734 47.3299 16.5585 47.2882C17.4528 47.2609 18.2977 47.2354 18.9922 47.4208C19.6429 47.5949 20.3375 48.0274 21.0729 48.4853C22.2132 49.1953 23.5055 50 25 50C27.438 50 29.3175 47.8729 31.0071 47.421C32.7776 46.9484 35.4465 47.8436 37.5028 46.6536C39.578 45.4531 40.1411 42.6767 41.4094 41.4095C42.676 40.143 45.4536 39.577 46.6536 37.5028C47.3734 36.2586 47.33 34.8265 47.288 33.4415C47.2609 32.5471 47.2353 31.7023 47.4207 31.0077C47.8739 29.3147 50 27.4377 50 25C50 23.5055 47.873 20.6824 47.421 18.9928ZM46.7168 27.8258C46.1984 28.6582 45.6625 29.5191 45.4081 30.4699C45.1437 31.4601 45.1753 32.4994 45.2057 33.5046C45.2404 34.6484 45.2731 35.729 44.8504 36.4596C44.4169 37.2087 43.4554 37.723 42.4374 38.2674C41.5581 38.7376 40.649 39.2237 39.9366 39.9361C39.2229 40.6493 38.7365 41.559 38.266 42.4389C37.7221 43.4562 37.2083 44.4172 36.4596 44.8503C35.7289 45.2731 34.6483 45.2407 33.5044 45.2057C32.4994 45.1753 31.46 45.1437 30.4693 45.4082C29.519 45.6625 28.6581 46.1984 27.8257 46.7168C26.8348 47.3339 25.8989 47.9167 25 47.9167C24.1011 47.9167 23.1652 47.3339 22.1743 46.7168C20.394 45.6083 19.5625 45.1859 17.4798 45.1859C15.9922 45.1859 14.4779 45.3928 13.5404 44.8504C12.1545 44.0485 11.5929 41.4655 10.064 39.9366C8.5326 38.4041 5.95167 37.8459 5.14958 36.4595C4.72687 35.7287 4.75958 34.6483 4.79427 33.5045C4.82469 32.4994 4.85625 31.46 4.59177 30.4693C4.3375 29.519 3.80156 28.6581 3.28323 27.8257C2.66615 26.8348 2.08333 25.8989 2.08333 25C2.08333 24.1011 2.66615 23.1652 3.28323 22.1742C3.80156 21.3418 4.3375 20.4809 4.59188 19.5301C4.85625 18.5399 4.82469 17.5006 4.79427 16.4954C4.75958 15.3516 4.72687 14.271 5.14958 13.5404C5.58312 12.7913 6.54458 12.277 7.5626 11.7327C8.44187 11.2625 9.35104 10.7764 10.0634 10.0639C11.596 8.5325 12.1539 5.95167 13.5404 5.14958C14.9003 4.36292 17.4136 5.15677 19.5307 4.59167C21.596 4.03917 23.3494 2.08333 25 2.08333C26.6561 2.08333 28.3941 4.03646 30.4699 4.59188C32.5857 5.15646 35.0991 4.36271 36.4596 5.14958C37.8455 5.95146 38.4071 8.53448 39.936 10.0634C40.6492 10.7771 41.559 11.2635 42.4387 11.7339C43.4561 12.2778 44.4172 12.7916 44.8504 13.5405C45.2731 14.2712 45.2404 15.3517 45.2057 16.4955C45.1753 17.5007 45.1437 18.54 45.4082 19.5307C45.9605 21.5949 47.9167 23.3494 47.9167 25C47.9167 25.8989 47.3339 26.8348 46.7168 27.8258Z" fill="#402913"/>
</svg>
