<svg width="366" height="712" viewBox="0 0 366 712" fill="none" xmlns="http://www.w3.org/2000/svg">
<path fill-rule="evenodd" clip-rule="evenodd" d="M445.143 894.716C367.069 896.452 292.886 948.629 217.944 918.021C132.299 883.041 40.6309 820.167 8.83493 716.516C-22.7214 613.647 41.4123 512.556 61.3802 407.645C80.7925 305.653 66.7491 187.501 124.053 111.165C183.622 31.811 277.316 -1.15357 366.92 0.626312C452.153 2.31936 524.401 68.5065 599.77 120.615C678.376 174.961 788.731 204.732 814.491 310.066C840.533 416.551 739.782 499.695 718.386 605.641C698.167 705.76 756.983 840.652 693.851 907.441C630.687 974.265 530.002 892.83 445.143 894.716Z" fill="#FFF7E1"/>
</svg>
