<svg width="1040" height="968" viewBox="0 0 1040 968" fill="none" xmlns="http://www.w3.org/2000/svg">
<path fill-rule="evenodd" clip-rule="evenodd" d="M259.339 990.446C147.489 960.327 19.2421 1010.52 -74.0874 931.27C-180.745 840.697 -283.843 704.08 -284.015 529.032C-284.186 355.304 -148.968 224.582 -74.9342 69.3316C-2.96082 -81.5982 28.4342 -271.803 143.168 -366.781C262.44 -465.515 410.095 -477.541 536.824 -437.09C657.37 -398.612 731.393 -264.993 815.98 -152.023C904.201 -34.1994 1048.28 58.6376 1039.14 233.774C1029.89 410.825 850.369 498.155 773.854 654.419C701.547 802.089 726.581 1037.23 607.705 1114.87C488.768 1192.54 380.91 1023.18 259.339 990.446Z" fill="#FFF7E1"/>
</svg>
