<svg width="33" height="40" viewBox="0 0 33 40" fill="none" xmlns="http://www.w3.org/2000/svg">
<path d="M32.4378 39.6873C32.3128 39.8748 32.1253 39.9998 31.8753 39.9998H17.8128C17.5316 39.9998 17.2816 39.8123 17.2191 39.5623L16.7816 38.1248H18.7816C20.5003 38.1248 21.9378 36.9686 22.3753 35.4061L21.5003 34.5311C21.4378 34.4686 21.3441 34.3748 21.2816 34.3123C20.4691 33.4061 20.0316 32.2498 20.0316 30.9998V27.9061C20.0316 27.1561 19.7816 26.4373 19.3441 25.8435L16.8753 22.5623C15.9066 21.2498 16.1566 19.3748 17.4691 18.4061C18.0941 17.9373 18.8753 17.7186 19.6566 17.8436C20.2816 17.9373 20.8441 18.1873 21.2816 18.6248V14.3748C21.2816 14.1873 21.3441 14.0311 21.5003 13.9061C21.7503 13.6873 22.1566 13.7186 22.3753 13.9686L22.5316 14.1561L26.4066 18.6561C27.7503 20.1873 28.5628 22.0623 28.7816 24.0936L29.7191 32.4685C29.9066 34.1873 30.5003 35.9061 31.4066 37.3748L32.4378 39.0623C32.5316 39.2498 32.5316 39.4686 32.4378 39.6873Z" fill="#FF5819"/>
<path d="M18.75 0H3.75C1.6875 0 0 1.6875 0 3.75V34.375C0 36.4375 1.6875 38.125 3.75 38.125H15.4375L15.0312 36.875H18.75C19.625 36.875 20.4062 36.4062 20.875 35.6875L20.5938 35.4062C20.5 35.3125 20.4062 35.2188 20.3125 35.0938C19.3125 33.9688 18.7812 32.5 18.7812 30.9688V27.875C18.7812 27.4062 18.625 26.9375 18.3438 26.5625L16.8125 24.5C16.75 24.6562 16.6562 24.7812 16.5312 24.9062L14.875 26.5312L15.2187 28.5938C15.3125 29.125 15.0938 29.6562 14.6562 29.9687C14.4062 30.1562 14.125 30.25 13.8125 30.25C13.5937 30.25 13.375 30.1875 13.1562 30.0938L11.3125 29.125L9.46875 30.0938C9 30.3438 8.40625 30.3125 7.96875 29.9687C7.53125 29.6562 7.3125 29.125 7.40625 28.5938L7.75 26.5312L6.09375 24.9062C5.75 24.5625 5.59375 24.0312 5.75 23.5625C5.90625 23.0938 6.3125 22.75 6.8125 22.6875L9.125 22.3438L10.0625 20.4375C10.3125 19.9375 10.8125 19.625 11.3125 19.625C11.8125 19.625 12.3437 19.9375 12.5625 20.4375L13.5 22.3438L15.5 22.625C15.0938 21.875 14.9688 21 15.0938 20.125C15.25 19 15.8437 18.0312 16.75 17.3438C17.5 16.7812 18.375 16.5 19.2812 16.5C19.5 16.5 19.6875 16.5312 19.875 16.5312C19.9375 16.5312 20 16.5625 20.0625 16.5625V14.375C20.0625 13.8438 20.3125 13.3125 20.7188 12.9688C21.0625 12.6875 21.5 12.5 21.9375 12.5C22.1562 12.5 22.375 12.5313 22.5625 12.5938V3.75C22.5 1.6875 20.8125 0 18.75 0ZM16.5625 32.1875C16.9062 32.1875 17.1875 32.4688 17.1875 32.8125C17.1875 33.1562 16.9062 33.4375 16.5625 33.4375H4.375C4.03125 33.4375 3.75 33.1562 3.75 32.8125C3.75 32.4688 4.03125 32.1875 4.375 32.1875H16.5625ZM5.625 5C5.625 4.65625 5.90625 4.375 6.25 4.375H8.125C8.46875 4.375 8.75 4.65625 8.75 5C8.75 5.34375 8.46875 5.625 8.125 5.625H6.25C5.90625 5.625 5.625 5.34375 5.625 5ZM16.4688 13.0938L14.8125 14.7188L15.1562 16.7812C15.25 17.3125 15.0312 17.8438 14.5937 18.1562C14.3437 18.3438 14.0625 18.4375 13.75 18.4375C13.5312 18.4375 13.3125 18.375 13.0938 18.2812L11.25 17.3125L9.40625 18.2812C8.9375 18.5312 8.34375 18.5 7.90625 18.1875C7.46875 17.875 7.25 17.3438 7.34375 16.8125L7.6875 14.75L6.03125 13.125C5.6875 12.7812 5.53125 12.25 5.6875 11.7812C5.84375 11.3125 6.25 10.9688 6.75 10.9062L9.0625 10.5625L10 8.65625C10.25 8.15625 10.75 7.84375 11.25 7.84375C11.75 7.84375 12.2812 8.15625 12.5 8.65625L13.4375 10.5625L15.75 10.9062C16.25 10.9688 16.6562 11.3125 16.8125 11.7812C16.9688 12.2187 16.8438 12.75 16.4688 13.0938ZM16.25 5.625H11.875C11.5312 5.625 11.25 5.34375 11.25 5C11.25 4.65625 11.5312 4.375 11.875 4.375H16.25C16.5938 4.375 16.875 4.65625 16.875 5C16.875 5.34375 16.5938 5.625 16.25 5.625Z" fill="#FF5819"/>
<path d="M13.6875 25.9063C13.5313 26.0625 13.4687 26.25 13.5 26.4687L13.9062 28.8438C13.9062 28.9375 13.875 29 13.8438 29.0312C13.8125 29.0625 13.75 29.0937 13.6562 29.0312L11.5313 27.9063C11.4375 27.875 11.3438 27.8438 11.25 27.8438C11.1562 27.8438 11.0625 27.875 10.9687 27.9063L8.84375 29.0312C8.75 29.0625 8.6875 29.0625 8.65625 29.0312C8.625 29 8.5625 28.9375 8.59375 28.8438L9 26.4687C9.03125 26.2812 8.96875 26.0625 8.8125 25.9063L6.90625 24.0625C6.90625 24.0625 6.875 24.0313 6.875 24C6.875 23.9688 6.90625 23.9687 6.90625 23.9687L9.53125 23.5938C9.75 23.5625 9.90625 23.4375 10 23.25L11.0938 21.0625C11.125 21 11.1875 20.9375 11.2188 20.9375C11.25 20.9375 11.3125 20.9688 11.3438 21.0625L12.4375 23.25C12.5313 23.4375 12.7188 23.5625 12.9063 23.5938L15.5312 23.9687C15.5312 23.9687 15.5625 23.9688 15.5625 24C15.5625 24.0313 15.5625 24.0625 15.5312 24.0625L13.6875 25.9063Z" fill="#FF5819"/>
<path d="M13.6875 14.0313C13.5313 14.1875 13.4687 14.375 13.5 14.5937L13.9062 16.9688C13.9062 17.0625 13.875 17.125 13.8438 17.1562C13.8125 17.1875 13.75 17.2188 13.6562 17.1562L11.5313 16.0313C11.4375 15.9688 11.3438 15.9687 11.25 15.9687C11.1562 15.9687 11.0625 16 10.9687 16.0313L8.84375 17.1562C8.75 17.1875 8.6875 17.1875 8.65625 17.1562C8.625 17.125 8.5625 17.0625 8.59375 16.9688L9 14.5937C9.03125 14.375 8.96875 14.1875 8.8125 14.0313L6.90625 12.1875C6.90625 12.1875 6.875 12.1563 6.875 12.125C6.875 12.0938 6.90625 12.0937 6.90625 12.0937L9.53125 11.7188C9.75 11.6875 9.90625 11.5625 10 11.375L11.0938 9.1875C11.125 9.125 11.1875 9.0625 11.2188 9.0625C11.25 9.0625 11.3125 9.09375 11.3438 9.1875L12.4375 11.375C12.5313 11.5625 12.7188 11.6875 12.9063 11.7188L15.5312 12.0937C15.5312 12.0937 15.5625 12.0938 15.5625 12.125C15.5625 12.1563 15.5625 12.1875 15.5312 12.1875L13.6875 14.0313Z" fill="#FF5819"/>
</svg>
