<svg width="41" height="50" viewBox="0 0 41 50" fill="none" xmlns="http://www.w3.org/2000/svg">
<path d="M40.5469 49.6096C40.3907 49.844 40.1563 50.0002 39.8438 50.0002H22.2657C21.9141 50.0002 21.6016 49.7659 21.5235 49.4534L20.9766 47.6565H23.4766C25.625 47.6565 27.4219 46.2112 27.9688 44.2581L26.875 43.1643C26.7969 43.0862 26.6797 42.969 26.6016 42.8909C25.586 41.7581 25.0391 40.3127 25.0391 38.7502V34.8831C25.0391 33.9456 24.7266 33.0471 24.1797 32.3049L21.0938 28.2034C19.8829 26.5627 20.1954 24.219 21.836 23.0081C22.6172 22.4221 23.5938 22.1487 24.5704 22.3049C25.3516 22.4221 26.0547 22.7346 26.6016 23.2815V17.969C26.6016 17.7346 26.6797 17.5393 26.875 17.3831C27.1875 17.1096 27.6954 17.1487 27.9688 17.4612L28.1641 17.6956L33.0079 23.3206C34.6875 25.2346 35.7032 27.5784 35.9766 30.1174L37.1485 40.5862C37.3829 42.7346 38.125 44.8831 39.2579 46.719L40.5469 48.8284C40.6641 49.0627 40.6641 49.3362 40.5469 49.6096Z" fill="#402913"/>
<path d="M23.4375 0H4.6875C2.10938 0 0 2.10938 0 4.6875V42.9688C0 45.5469 2.10938 47.6562 4.6875 47.6562H19.2969L18.7891 46.0938H23.4375C24.5312 46.0938 25.5078 45.5078 26.0938 44.6094L25.7422 44.2578C25.625 44.1406 25.5078 44.0234 25.3906 43.8672C24.1406 42.4609 23.4766 40.625 23.4766 38.7109V34.8438C23.4766 34.2578 23.2812 33.6719 22.9297 33.2031L21.0156 30.625C20.9375 30.8203 20.8203 30.9766 20.6641 31.1328L18.5938 33.1641L19.0234 35.7422C19.1406 36.4062 18.8672 37.0703 18.3203 37.4609C18.0078 37.6953 17.6562 37.8125 17.2656 37.8125C16.9922 37.8125 16.7188 37.7344 16.4453 37.6172L14.1406 36.4062L11.8359 37.6172C11.25 37.9297 10.5078 37.8906 9.96094 37.4609C9.41406 37.0703 9.14062 36.4062 9.25781 35.7422L9.6875 33.1641L7.61719 31.1328C7.1875 30.7031 6.99219 30.0391 7.1875 29.4531C7.38281 28.8672 7.89063 28.4375 8.51563 28.3594L11.4062 27.9297L12.5781 25.5469C12.8906 24.9219 13.5156 24.5313 14.1406 24.5313C14.7656 24.5313 15.4297 24.9219 15.7031 25.5469L16.875 27.9297L19.375 28.2812C18.8672 27.3438 18.7109 26.25 18.8672 25.1562C19.0625 23.75 19.8047 22.5391 20.9375 21.6797C21.875 20.9766 22.9687 20.625 24.1016 20.625C24.375 20.625 24.6094 20.6641 24.8438 20.6641C24.9219 20.6641 25 20.7031 25.0781 20.7031V17.9688C25.0781 17.3047 25.3906 16.6406 25.8984 16.2109C26.3281 15.8594 26.875 15.625 27.4219 15.625C27.6953 15.625 27.9687 15.6641 28.2031 15.7422V4.6875C28.125 2.10938 26.0156 0 23.4375 0ZM20.7031 40.2344C21.1328 40.2344 21.4844 40.5859 21.4844 41.0156C21.4844 41.4453 21.1328 41.7969 20.7031 41.7969H5.46875C5.03906 41.7969 4.6875 41.4453 4.6875 41.0156C4.6875 40.5859 5.03906 40.2344 5.46875 40.2344H20.7031ZM7.03125 6.25C7.03125 5.82031 7.38281 5.46875 7.8125 5.46875H10.1562C10.5859 5.46875 10.9375 5.82031 10.9375 6.25C10.9375 6.67969 10.5859 7.03125 10.1562 7.03125H7.8125C7.38281 7.03125 7.03125 6.67969 7.03125 6.25ZM20.5859 16.3672L18.5156 18.3984L18.9453 20.9766C19.0625 21.6406 18.7891 22.3047 18.2422 22.6953C17.9297 22.9297 17.5781 23.0469 17.1875 23.0469C16.9141 23.0469 16.6406 22.9688 16.3672 22.8516L14.0625 21.6406L11.7578 22.8516C11.1719 23.1641 10.4297 23.125 9.88281 22.7344C9.33594 22.3437 9.0625 21.6797 9.17969 21.0156L9.60937 18.4375L7.53906 16.4062C7.10938 15.9766 6.91406 15.3125 7.10937 14.7266C7.30469 14.1406 7.8125 13.7109 8.4375 13.6328L11.3281 13.2031L12.5 10.8203C12.8125 10.1953 13.4375 9.80469 14.0625 9.80469C14.6875 9.80469 15.3516 10.1953 15.625 10.8203L16.7969 13.2031L19.6875 13.6328C20.3125 13.7109 20.8203 14.1406 21.0156 14.7266C21.2109 15.2734 21.0547 15.9375 20.5859 16.3672ZM20.3125 7.03125H14.8438C14.4141 7.03125 14.0625 6.67969 14.0625 6.25C14.0625 5.82031 14.4141 5.46875 14.8438 5.46875H20.3125C20.7422 5.46875 21.0938 5.82031 21.0938 6.25C21.0938 6.67969 20.7422 7.03125 20.3125 7.03125Z" fill="#402913"/>
<path d="M17.1094 32.3828C16.9141 32.5781 16.8359 32.8125 16.875 33.0859L17.3828 36.0547C17.3828 36.1719 17.3438 36.25 17.3047 36.2891C17.2656 36.3281 17.1875 36.3672 17.0703 36.2891L14.4141 34.8828C14.2969 34.8438 14.1797 34.8047 14.0625 34.8047C13.9453 34.8047 13.8281 34.8438 13.7109 34.8828L11.0547 36.2891C10.9375 36.3281 10.8594 36.3281 10.8203 36.2891C10.7812 36.25 10.7031 36.1719 10.7422 36.0547L11.25 33.0859C11.2891 32.8516 11.2109 32.5781 11.0156 32.3828L8.63281 30.0781C8.63281 30.0781 8.59375 30.0391 8.59375 30C8.59375 29.9609 8.63281 29.9609 8.63281 29.9609L11.9141 29.4922C12.1875 29.4531 12.3828 29.2969 12.5 29.0625L13.8672 26.3281C13.9062 26.25 13.9844 26.1719 14.0234 26.1719C14.0625 26.1719 14.1406 26.2109 14.1797 26.3281L15.5469 29.0625C15.6641 29.2969 15.8984 29.4531 16.1328 29.4922L19.4141 29.9609C19.4141 29.9609 19.4531 29.9609 19.4531 30C19.4531 30.0391 19.4531 30.0781 19.4141 30.0781L17.1094 32.3828Z" fill="#402913"/>
<path d="M17.1094 17.5391C16.9141 17.7344 16.8359 17.9687 16.875 18.2422L17.3828 21.2109C17.3828 21.3281 17.3438 21.4063 17.3047 21.4453C17.2656 21.4844 17.1875 21.5234 17.0703 21.4453L14.4141 20.0391C14.2969 19.9609 14.1797 19.9609 14.0625 19.9609C13.9453 19.9609 13.8281 20 13.7109 20.0391L11.0547 21.4453C10.9375 21.4844 10.8594 21.4844 10.8203 21.4453C10.7812 21.4063 10.7031 21.3281 10.7422 21.2109L11.25 18.2422C11.2891 17.9687 11.2109 17.7344 11.0156 17.5391L8.63281 15.2344C8.63281 15.2344 8.59375 15.1953 8.59375 15.1563C8.59375 15.1172 8.63281 15.1172 8.63281 15.1172L11.9141 14.6484C12.1875 14.6094 12.3828 14.4531 12.5 14.2188L13.8672 11.4844C13.9062 11.4063 13.9844 11.3281 14.0234 11.3281C14.0625 11.3281 14.1406 11.3672 14.1797 11.4844L15.5469 14.2188C15.6641 14.4531 15.8984 14.6094 16.1328 14.6484L19.4141 15.1172C19.4141 15.1172 19.4531 15.1172 19.4531 15.1563C19.4531 15.1953 19.4531 15.2344 19.4141 15.2344L17.1094 17.5391Z" fill="#402913"/>
</svg>
