<svg width="40" height="43" viewBox="0 0 40 43" fill="none" xmlns="http://www.w3.org/2000/svg">
<path d="M10 10.5469C12.5888 10.5469 14.6875 8.18588 14.6875 5.27344C14.6875 2.361 12.5888 0 10 0C7.41117 0 5.3125 2.361 5.3125 5.27344C5.3125 8.18588 7.41117 10.5469 10 10.5469Z" fill="#FF5819"/>
<path d="M36.25 3.51562H15.7188C15.8438 4.07812 15.9375 4.67578 15.9375 5.27344C15.9375 8.01562 14.4687 10.3711 12.375 11.3906C12.9687 11.5313 13.5625 11.7422 14.125 12.0586C15.4375 12.7969 16.2812 14.3086 16.2812 15.9609V17.6484C16.2812 19.1602 15.3438 20.4609 14.0312 20.7422L13.5625 20.8477C12.9063 20.9883 12.25 21.0586 11.5938 21.0586H8.4375C7.78125 21.0586 7.125 20.9883 6.46875 20.8477L6 20.7422C4.6875 20.4609 3.75 19.125 3.75 17.6484V15.9609C3.75 14.2734 4.5625 12.7969 5.90625 12.0586C6.46875 11.7422 7.03125 11.5313 7.65625 11.3906C5.53125 10.3711 4.0625 8.01562 4.0625 5.27344C4.0625 4.67578 4.125 4.07812 4.28125 3.51562H3.75C1.6875 3.51562 0 5.41406 0 7.73438V33.75C0 36.0703 1.6875 37.9688 3.75 37.9688H5.15625L4.25 39.7266C3.90625 40.3945 3.90625 41.168 4.25 41.8359C4.59375 42.5039 5.1875 42.8906 5.875 42.8906H6.78125C7.71875 42.8906 8.65625 42.6797 9.53125 42.2227L15.3438 39.375C17.25 38.4258 19.2813 37.9688 21.3438 37.9688H36.25C38.3125 37.9688 40 36.0703 40 33.75V7.73438C40 5.41406 38.3125 3.51562 36.25 3.51562ZM18.0312 28.4414L16.375 30.2695L16.7188 32.5898C16.8125 33.1875 16.5937 33.7852 16.1562 34.1367C15.9062 34.3477 15.625 34.4531 15.3125 34.4531C15.0938 34.4531 14.875 34.3828 14.6562 34.2773L12.8125 33.1875L10.9688 34.2773C10.5 34.5586 9.90625 34.5234 9.46875 34.1367C9.03125 33.7852 8.8125 33.1875 8.90625 32.5898L9.25 30.2695L7.59375 28.4414C7.25 28.0547 7.125 27.457 7.28125 26.9297C7.4375 26.4023 7.84375 26.0156 8.34375 25.9453L10.6562 25.5586L11.5938 23.4141C11.8438 22.8516 12.3437 22.5 12.8438 22.5C13.3438 22.5 13.875 22.8516 14.0938 23.4141L15.0312 25.5586L17.3438 25.9453C17.8438 26.0156 18.25 26.4023 18.4062 26.9297C18.5312 27.457 18.4062 28.0547 18.0312 28.4414ZM32.4062 28.4414L30.75 30.2695L31.0938 32.5898C31.1875 33.1875 30.9687 33.7852 30.5312 34.1367C30.2812 34.3477 30 34.4531 29.6875 34.4531C29.4688 34.4531 29.25 34.3828 29.0312 34.2773L27.1875 33.1875L25.3438 34.2773C24.875 34.5586 24.2812 34.5234 23.8438 34.1367C23.4063 33.7852 23.1875 33.1875 23.2812 32.5898L23.625 30.2695L21.9688 28.4414C21.625 28.0547 21.4688 27.457 21.625 26.9297C21.7812 26.4023 22.1875 26.0156 22.6875 25.9453L25 25.5586L25.9375 23.4141C26.1875 22.8516 26.6875 22.5 27.1875 22.5C27.6875 22.5 28.2188 22.8516 28.4375 23.4141L29.375 25.5586L31.6875 25.9453C32.1875 26.0156 32.5938 26.4023 32.75 26.9297C32.9062 27.457 32.7812 28.0547 32.4062 28.4414ZM35.625 17.5781H20C19.6562 17.5781 19.375 17.2617 19.375 16.875C19.375 16.4883 19.6562 16.1719 20 16.1719H35.625C35.9688 16.1719 36.25 16.4883 36.25 16.875C36.25 17.2617 35.9688 17.5781 35.625 17.5781ZM35.625 11.9531H20C19.6562 11.9531 19.375 11.6367 19.375 11.25C19.375 10.8633 19.6562 10.5469 20 10.5469H35.625C35.9688 10.5469 36.25 10.8633 36.25 11.25C36.25 11.6367 35.9688 11.9531 35.625 11.9531Z" fill="#FF5819"/>
<path d="M15 15.9961V17.6836C15 18.1055 14.875 18.4922 14.6562 18.8086C14.4375 19.125 14.125 19.3359 13.75 19.4062L13.2812 19.5117C12.7188 19.6523 12.125 19.6875 11.5625 19.6875H8.4375C7.875 19.6875 7.28125 19.6172 6.71875 19.5117L6.25 19.4062C5.53125 19.2305 5 18.5273 5 17.6836V15.9961C5 14.8711 5.5625 13.8516 6.46875 13.3242C7.25 12.9023 8.125 12.6562 9 12.6562H11.0625C11.9375 12.6562 12.8125 12.9023 13.5938 13.3242C14.4375 13.8164 15 14.8359 15 15.9961Z" fill="#FF5819"/>
<path d="M15.25 29.4951C15.0938 29.6709 15.0312 29.8818 15.0625 30.1279L15.4688 32.7998C15.4688 32.9053 15.4375 32.9756 15.4063 33.0107C15.375 33.0459 15.3125 33.0811 15.2187 33.0107L13.0938 31.7451C13 31.71 12.9063 31.6748 12.8125 31.6748C12.7188 31.6748 12.625 31.71 12.5312 31.7451L10.4063 33.0107C10.3125 33.0459 10.25 33.0459 10.2187 33.0107C10.1875 32.9756 10.125 32.9053 10.1563 32.7998L10.5625 30.1279C10.5938 29.917 10.5312 29.6709 10.375 29.4951L8.46875 27.4209C8.46875 27.4209 8.4375 27.3857 8.4375 27.3506C8.4375 27.3154 8.46875 27.3154 8.46875 27.3154L11.0938 26.8936C11.3125 26.8584 11.4688 26.7178 11.5625 26.5068L12.6563 24.0459C12.7188 23.8701 12.875 23.8701 12.9375 24.0459L14.0313 26.5068C14.125 26.7178 14.3125 26.8584 14.5 26.8936L17.125 27.3154C17.125 27.3154 17.1563 27.3154 17.1563 27.3506C17.1563 27.3857 17.1563 27.4209 17.125 27.4209L15.25 29.4951Z" fill="#FF5819"/>
<path d="M29.6562 29.4951C29.5 29.6709 29.4375 29.8818 29.4688 30.1279L29.875 32.7998C29.875 32.9053 29.8437 32.9756 29.8125 33.0107C29.7812 33.0459 29.7188 33.0811 29.625 33.0107L27.5 31.7451C27.4063 31.71 27.3125 31.6748 27.2188 31.6748C27.125 31.6748 27.0312 31.71 26.9375 31.7451L24.8125 33.0107C24.7188 33.0459 24.6563 33.0459 24.625 33.0107C24.5938 32.9756 24.5313 32.9053 24.5625 32.7998L24.9688 30.1279C25 29.917 24.9375 29.6709 24.7813 29.4951L22.875 27.4209C22.875 27.4209 22.8438 27.3857 22.8438 27.3506C22.8438 27.3154 22.875 27.3154 22.875 27.3154L25.5 26.8936C25.7188 26.8584 25.875 26.7178 25.9688 26.5068L27.0625 24.0459C27.125 23.8701 27.2813 23.8701 27.3438 24.0459L28.4375 26.5068C28.5313 26.7178 28.7188 26.8584 28.9063 26.8936L31.5312 27.3154C31.5312 27.3154 31.5625 27.3154 31.5625 27.3506C31.5625 27.3857 31.5625 27.4209 31.5312 27.4209L29.6562 29.4951Z" fill="#FF5819"/>
</svg>
