<svg width="45" height="43" viewBox="0 0 45 43" fill="none" xmlns="http://www.w3.org/2000/svg">
<path d="M11.25 10.5469C14.1624 10.5469 16.5234 8.18588 16.5234 5.27344C16.5234 2.361 14.1624 0 11.25 0C8.33756 0 5.97656 2.361 5.97656 5.27344C5.97656 8.18588 8.33756 10.5469 11.25 10.5469Z" fill="#402913"/>
<path d="M40.7812 3.51562H17.6836C17.8242 4.07812 17.9297 4.67578 17.9297 5.27344C17.9297 8.01562 16.2773 10.3711 13.9219 11.3906C14.5898 11.5313 15.2578 11.7422 15.8906 12.0586C17.3672 12.7969 18.3164 14.3086 18.3164 15.9609V17.6484C18.3164 19.1602 17.2617 20.4609 15.7852 20.7422L15.2578 20.8477C14.5195 20.9883 13.7812 21.0586 13.043 21.0586H9.49219C8.75391 21.0586 8.01562 20.9883 7.27734 20.8477L6.75 20.7422C5.27344 20.4609 4.21875 19.125 4.21875 17.6484V15.9609C4.21875 14.2734 5.13281 12.7969 6.64453 12.0586C7.27734 11.7422 7.91016 11.5313 8.61328 11.3906C6.22266 10.3711 4.57031 8.01562 4.57031 5.27344C4.57031 4.67578 4.64063 4.07812 4.81641 3.51562H4.21875C1.89844 3.51562 0 5.41406 0 7.73438V33.75C0 36.0703 1.89844 37.9688 4.21875 37.9688H5.80078L4.78125 39.7266C4.39453 40.3945 4.39453 41.168 4.78125 41.8359C5.16797 42.5039 5.83594 42.8906 6.60937 42.8906H7.62891C8.68359 42.8906 9.73828 42.6797 10.7227 42.2227L17.2617 39.375C19.4062 38.4258 21.6914 37.9688 24.0117 37.9688H40.7812C43.1016 37.9688 45 36.0703 45 33.75V7.73438C45 5.41406 43.1016 3.51562 40.7812 3.51562ZM20.2852 28.4414L18.4219 30.2695L18.8086 32.5898C18.9141 33.1875 18.668 33.7852 18.1758 34.1367C17.8945 34.3477 17.5781 34.4531 17.2266 34.4531C16.9805 34.4531 16.7344 34.3828 16.4883 34.2773L14.4141 33.1875L12.3398 34.2773C11.8125 34.5586 11.1445 34.5234 10.6523 34.1367C10.1602 33.7852 9.91406 33.1875 10.0195 32.5898L10.4062 30.2695L8.54297 28.4414C8.15625 28.0547 8.01562 27.457 8.19141 26.9297C8.36719 26.4023 8.82422 26.0156 9.38672 25.9453L11.9883 25.5586L13.043 23.4141C13.3242 22.8516 13.8867 22.5 14.4492 22.5C15.0117 22.5 15.6094 22.8516 15.8555 23.4141L16.9102 25.5586L19.5117 25.9453C20.0742 26.0156 20.5312 26.4023 20.707 26.9297C20.8477 27.457 20.707 28.0547 20.2852 28.4414ZM36.457 28.4414L34.5937 30.2695L34.9805 32.5898C35.0859 33.1875 34.8398 33.7852 34.3477 34.1367C34.0664 34.3477 33.75 34.4531 33.3984 34.4531C33.1523 34.4531 32.9062 34.3828 32.6602 34.2773L30.5859 33.1875L28.5117 34.2773C27.9844 34.5586 27.3164 34.5234 26.8242 34.1367C26.332 33.7852 26.0859 33.1875 26.1914 32.5898L26.5781 30.2695L24.7148 28.4414C24.3281 28.0547 24.1523 27.457 24.3281 26.9297C24.5039 26.4023 24.9609 26.0156 25.5234 25.9453L28.125 25.5586L29.1797 23.4141C29.4609 22.8516 30.0234 22.5 30.5859 22.5C31.1484 22.5 31.7461 22.8516 31.9922 23.4141L33.0469 25.5586L35.6484 25.9453C36.2109 26.0156 36.668 26.4023 36.8438 26.9297C37.0195 27.457 36.8789 28.0547 36.457 28.4414ZM40.0781 17.5781H22.5C22.1133 17.5781 21.7969 17.2617 21.7969 16.875C21.7969 16.4883 22.1133 16.1719 22.5 16.1719H40.0781C40.4648 16.1719 40.7812 16.4883 40.7812 16.875C40.7812 17.2617 40.4648 17.5781 40.0781 17.5781ZM40.0781 11.9531H22.5C22.1133 11.9531 21.7969 11.6367 21.7969 11.25C21.7969 10.8633 22.1133 10.5469 22.5 10.5469H40.0781C40.4648 10.5469 40.7812 10.8633 40.7812 11.25C40.7812 11.6367 40.4648 11.9531 40.0781 11.9531Z" fill="#402913"/>
<path d="M16.875 15.9961V17.6836C16.875 18.1055 16.7344 18.4922 16.4883 18.8086C16.2422 19.125 15.8906 19.3359 15.4688 19.4062L14.9414 19.5117C14.3086 19.6523 13.6406 19.6875 13.0078 19.6875H9.49219C8.85938 19.6875 8.19141 19.6172 7.55859 19.5117L7.03125 19.4062C6.22266 19.2305 5.625 18.5273 5.625 17.6836V15.9961C5.625 14.8711 6.25781 13.8516 7.27734 13.3242C8.15625 12.9023 9.14063 12.6562 10.125 12.6562H12.4453C13.4297 12.6562 14.4141 12.9023 15.293 13.3242C16.2422 13.8164 16.875 14.8359 16.875 15.9961Z" fill="#402913"/>
<path d="M17.1563 29.4961C16.9805 29.6719 16.9102 29.8828 16.9453 30.1289L17.4023 32.8008C17.4023 32.9063 17.3672 32.9766 17.332 33.0117C17.2969 33.0469 17.2266 33.082 17.1211 33.0117L14.7305 31.7461C14.625 31.7109 14.5195 31.6758 14.4141 31.6758C14.3086 31.6758 14.2031 31.7109 14.0977 31.7461L11.707 33.0117C11.6016 33.0469 11.5312 33.0469 11.4961 33.0117C11.4609 32.9766 11.3906 32.9063 11.4258 32.8008L11.8828 30.1289C11.918 29.918 11.8477 29.6719 11.6719 29.4961L9.52734 27.4219C9.52734 27.4219 9.49219 27.3867 9.49219 27.3516C9.49219 27.3164 9.52734 27.3164 9.52734 27.3164L12.4805 26.8945C12.7266 26.8594 12.9023 26.7188 13.0078 26.5078L14.2383 24.0469C14.3086 23.8711 14.4844 23.8711 14.5547 24.0469L15.7852 26.5078C15.8906 26.7188 16.1016 26.8594 16.3125 26.8945L19.2656 27.3164C19.2656 27.3164 19.3008 27.3164 19.3008 27.3516C19.3008 27.3867 19.3008 27.4219 19.2656 27.4219L17.1563 29.4961Z" fill="#402913"/>
<path d="M33.3633 29.4961C33.1875 29.6719 33.1172 29.8828 33.1523 30.1289L33.6094 32.8008C33.6094 32.9063 33.5742 32.9766 33.5391 33.0117C33.5039 33.0469 33.4336 33.082 33.3281 33.0117L30.9375 31.7461C30.832 31.7109 30.7266 31.6758 30.6211 31.6758C30.5156 31.6758 30.4102 31.7109 30.3047 31.7461L27.9141 33.0117C27.8086 33.0469 27.7383 33.0469 27.7031 33.0117C27.668 32.9766 27.5977 32.9063 27.6328 32.8008L28.0898 30.1289C28.125 29.918 28.0547 29.6719 27.8789 29.4961L25.7344 27.4219C25.7344 27.4219 25.6992 27.3867 25.6992 27.3516C25.6992 27.3164 25.7344 27.3164 25.7344 27.3164L28.6875 26.8945C28.9336 26.8594 29.1094 26.7188 29.2148 26.5078L30.4453 24.0469C30.5156 23.8711 30.6914 23.8711 30.7617 24.0469L31.9922 26.5078C32.0977 26.7188 32.3086 26.8594 32.5195 26.8945L35.4727 27.3164C35.4727 27.3164 35.5078 27.3164 35.5078 27.3516C35.5078 27.3867 35.5078 27.4219 35.4727 27.4219L33.3633 29.4961Z" fill="#402913"/>
</svg>
