<svg width="654" height="1308" viewBox="0 0 654 1308" fill="none" xmlns="http://www.w3.org/2000/svg">
<path fill-rule="evenodd" clip-rule="evenodd" d="M410.949 1140.32C318.714 1096.62 201.476 1114.12 131.847 1034.46C52.2748 943.414 -17.9935 816.254 5.57741 676.527C28.9707 537.853 163.122 457.313 247.911 346.437C330.34 238.646 383.147 92.3749 494.817 36.7568C610.902 -21.0607 739.681 -4.6879 843.328 49.8833C941.919 101.792 987.557 221.446 1045.09 326.48C1105.09 436.025 1216.59 535.455 1184.98 673.613C1153.02 813.282 986.603 851.402 899.539 962.651C817.265 1067.78 806.962 1259.84 694.075 1300.89C581.13 1341.96 511.2 1187.83 410.949 1140.32Z" fill="#FFF7E1"/>
</svg>
