<svg width="238" height="460" viewBox="0 0 238 460" fill="none" xmlns="http://www.w3.org/2000/svg">
<path fill-rule="evenodd" clip-rule="evenodd" d="M17.5999 -9.36916C58.1869 -6.59586 99.1278 -30.1918 136.569 -10.7749C179.357 11.4149 223.958 48.3692 235.579 103.674C247.113 158.562 209.085 208.024 193.791 261.548C178.922 313.582 180.651 375.58 147.331 412.512C112.693 450.904 62.5337 463.608 16.1298 458.467C-28.0105 453.577 -62.38 415.816 -99.0314 385.218C-137.257 353.305 -193.11 332.657 -201.52 276.762C-210.023 220.256 -153.842 181.835 -137.758 127.841C-122.559 76.817 -146.729 4.02189 -110.834 -27.6799C-74.921 -59.398 -26.5147 -12.3835 17.5999 -9.36916Z" fill="#FFF7E1"/>
</svg>
