<svg width="1244" height="1848" viewBox="0 0 1244 1848" fill="none" xmlns="http://www.w3.org/2000/svg">
<path fill-rule="evenodd" clip-rule="evenodd" d="M111.843 1616.39C-28.8221 1560.41 -202.894 1606.23 -312.102 1489.26C-436.905 1355.58 -550.139 1162.66 -523.951 935.374C-497.959 709.804 -302.688 560.495 -183.148 370.111C-66.9349 185.025 2.52281 -57.1723 165.808 -163.167C335.55 -273.354 529.06 -266.688 687.483 -195.05C838.177 -126.907 914.117 57.7335 1006.89 217.162C1103.64 383.438 1276.69 525.704 1238.39 751.695C1199.67 980.158 953.432 1066.45 830.517 1257.77C714.363 1438.58 711.385 1747.63 545.339 1830.48C379.207 1913.38 264.733 1677.24 111.843 1616.39Z" fill="#FFF7E1"/>
</svg>
